<?xml version="1.0" standalone="no"?>
<!DOCTYPE svg PUBLIC "-//W3C//DTD SVG 1.1//EN" "http://www.w3.org/Graphics/SVG/1.1/DTD/svg11.dtd" >
<svg xmlns="http://www.w3.org/2000/svg" xmlns:xlink="http://www.w3.org/1999/xlink" version="1.1">
<metadata></metadata>
<defs>
<font id="gentleman_300extra_light" horiz-adv-x="1370" >
<font-face units-per-em="2048" ascent="1536" descent="-512" />
<missing-glyph horiz-adv-x="581" />
<glyph unicode="AE" horiz-adv-x="1968" d="M6 0l934 1434h915v-66h-778v-590h731v-65h-731v-647h803v-66h-876v416h-642l-270 -416h-86zM406 481h598v887h-21z" />
<glyph unicode="ae" horiz-adv-x="1849" d="M78 256q0 60 21.5 108.5t58.5 83t93.5 60.5t118.5 41.5t142 25.5t155 14t167 5v78q0 150 -87 230.5t-225 80.5q-106 0 -195.5 -35t-142.5 -92l-47 47q62 65 163 105.5t222 40.5q153 0 250.5 -80.5t114.5 -231.5h4q52 148 169.5 230t272.5 82q103 0 185 -34.5t133.5 -94 t78.5 -136.5t27 -166l-6 -96h-844q4 -219 132.5 -350t326.5 -131q56 0 110.5 13t91.5 31.5t66.5 36.5t43.5 31l14 13l45 -47q-6 -6 -17 -15.5t-48.5 -34.5t-78 -44t-102.5 -34.5t-125 -15.5q-169 0 -295 85.5t-180 234.5h-4q-4 -59 -14 -92.5t-31 -65.5q-57 -84 -162.5 -123 t-218.5 -39q-72 0 -136.5 15t-121.5 46.5t-91 88t-34 131.5zM152 256q0 -57 27.5 -100.5t73.5 -67.5t98 -35.5t110 -11.5q61 0 122 14.5t119.5 45t95 88t36.5 133.5v206q-83 -1 -151 -4.5t-140.5 -11.5t-128 -20.5t-106.5 -33.5t-84 -48.5t-52.5 -66.5t-19.5 -87zM911 588 h770q5 79 -15 149.5t-62.5 125.5t-112 87.5t-158.5 32.5q-164 0 -281.5 -106.5t-140.5 -288.5z" />
<glyph unicode="OE" horiz-adv-x="1964" d="M106 717q0 205 92 369t254.5 256t364.5 92h1036v-66h-778v-590h731v-65h-731v-647h801v-66h-1059q-202 0 -364.5 92t-254.5 256t-92 369zM182 717q0 -139 48 -260.5t132 -207t202 -134.5t253 -49h184v1302h-184q-135 0 -253 -49t-202 -134.5t-132 -207t-48 -260.5z" />
<glyph unicode="oe" horiz-adv-x="2070" d="M92 512q0 231 146.5 384t371.5 153q179 0 308 -98t174 -259h4q44 168 169.5 262.5t293.5 94.5q103 0 184.5 -34.5t132.5 -94.5t77.5 -138t26.5 -168l-4 -96h-843q3 -212 129.5 -344.5t328.5 -132.5q56 0 110.5 13t91.5 31.5t66.5 36.5t43.5 31l14 13l45 -47 q-6 -6 -17 -15.5t-48.5 -34.5t-78 -44t-102.5 -34.5t-125 -15.5q-181 0 -314 98.5t-179 264.5h-4q-45 -164 -174.5 -263.5t-309.5 -99.5q-225 0 -371.5 153t-146.5 384zM166 512q0 -203 125.5 -337t318.5 -134q197 0 323 133.5t126 337.5q0 133 -56.5 240.5t-159.5 169 t-233 61.5q-193 0 -318.5 -134.5t-125.5 -336.5zM1139 584h766q4 39 -2 73q-13 142 -101.5 234t-242.5 92q-165 0 -282 -107.5t-138 -291.5z" />
<glyph unicode="&#x2e;&#x2e;&#x2e;" horiz-adv-x="1679" d="M129 0v174h74v-174h-74zM803 0v174h74v-174h-74zM1477 0v174h73v-174h-73z" />
<glyph horiz-adv-x="0" />
<glyph horiz-adv-x="0" />
<glyph horiz-adv-x="682" />
<glyph unicode="&#xd;" horiz-adv-x="512" />
<glyph unicode=" "  horiz-adv-x="581" />
<glyph unicode="&#x09;" horiz-adv-x="581" />
<glyph unicode="&#xa0;" horiz-adv-x="581" />
<glyph unicode="!" horiz-adv-x="536" d="M231 0v174h74v-174h-74zM231 389v1045h74v-1045h-74z" />
<glyph unicode="&#x22;" horiz-adv-x="690" d="M162 958v476h74v-476h-74zM455 958v476h73v-476h-73z" />
<glyph unicode="#" horiz-adv-x="1175" d="M96 463v65h242l53 383h-248v66h256l64 457h74l-64 -457h320l63 457h74l-64 -457h213v-66h-221l-53 -383h227v-65h-235l-64 -463h-74l62 463h-318l-63 -463h-74l62 463h-232zM412 528h319l53 383h-319z" />
<glyph unicode="$" horiz-adv-x="1077" d="M94 160l51 45q6 -7 17 -17.5t49.5 -38.5t81.5 -49.5t112 -39t142 -17.5q161 0 260.5 81t99.5 193q0 41 -11.5 78.5t-28 66t-47.5 57.5t-56 48t-69.5 44t-71 38t-76.5 37q-14 7 -21 10q-169 82 -235 128q-156 109 -167 260q-1 15 -1 30q0 133 110.5 231t286.5 111v180h74 v-180q65 -2 126 -17.5t98.5 -33t72 -40.5t43.5 -31t16 -15l-49 -47q-5 5 -13.5 13t-40 28.5t-67.5 36t-93.5 28.5t-119.5 13q-161 0 -265.5 -81t-104.5 -196q0 -53 21 -98.5t43.5 -74t78.5 -65t84.5 -50.5t103.5 -50q22 -11 33 -16t33 -16q44 -21 66.5 -32t62 -32.5t61 -36 t53.5 -38t49.5 -44t38.5 -49t31.5 -57t17.5 -64t7 -74.5q0 -129 -106.5 -228t-280.5 -112v-178h-74v178q-77 3 -149.5 23t-120.5 46t-85 52t-54 44z" />
<glyph unicode="%" horiz-adv-x="1658" d="M80 1104q0 142 98.5 240t241.5 98t241.5 -98t98.5 -240t-98.5 -240t-241.5 -98t-241.5 98t-98.5 240zM156 1104q0 -114 76 -192t188 -78t188 78t76 192t-76 192t-188 78t-188 -78t-76 -192zM330 -37l913 1507h82l-913 -1507h-82zM899 330q0 142 98.5 240t241.5 98 t241.5 -98t98.5 -240t-98.5 -240t-241.5 -98t-241.5 98t-98.5 240zM975 330q0 -114 76 -192.5t188 -78.5t188 78.5t76 192.5t-76 192t-188 78t-188 -78t-76 -192z" />
<glyph unicode="&#x26;" horiz-adv-x="1443" d="M176 342q0 81 24 146.5t74 120.5t109.5 98t148.5 94q-85 94 -136.5 180.5t-51.5 173.5q0 141 88 222t221 81q127 0 214 -77t87 -210q0 -207 -315 -389l369 -413l247 401h82l-282 -459l274 -311h-92l-221 248q-59 -91 -114 -147t-135.5 -91t-182.5 -35q-113 0 -204.5 41.5 t-147.5 126.5t-56 199zM252 342q0 -138 95 -218.5t237 -80.5q129 0 216.5 64.5t170.5 195.5l-393 440q-84 -45 -138 -82t-100 -84.5t-67 -105t-21 -129.5zM418 1155q0 -40 14.5 -82t43.5 -85.5t53 -74t63 -75.5q287 162 287 333q0 101 -65.5 160.5t-160.5 59.5 q-100 0 -167.5 -63.5t-67.5 -172.5z" />
<glyph unicode="'" horiz-adv-x="397" d="M162 958v476h74v-476h-74z" />
<glyph unicode="(" horiz-adv-x="530" d="M106 584q0 247 80 480.5t213 405.5l56 -40q-125 -163 -200 -386t-75 -460t75 -460t200 -386l-56 -41q-133 172 -213 406t-80 481z" />
<glyph unicode=")" horiz-adv-x="530" d="M76 -262q124 162 199 385.5t75 460.5t-75 460.5t-199 385.5l53 40q134 -172 214.5 -405.5t80.5 -480.5t-80.5 -481t-214.5 -406z" />
<glyph unicode="*" horiz-adv-x="987" d="M117 1153l22 61l314 -102v322h71v-324l320 100l22 -65l-323 -94l211 -281l-60 -41l-207 283l-202 -283l-60 41l211 283z" />
<glyph unicode="+" horiz-adv-x="1296" d="M90 631v65h522v525h74v-525h520v-65h-520v-527h-74v527h-522z" />
<glyph unicode="," horiz-adv-x="366" d="M27 -287l147 482h78l-152 -482h-73z" />
<glyph unicode="-" horiz-adv-x="720" d="M115 500v65h491v-65h-491z" />
<glyph unicode="." horiz-adv-x="331" d="M129 0v174h74v-174h-74z" />
<glyph unicode="/" horiz-adv-x="849" d="M76 -18l620 1484h80l-620 -1484h-80z" />
<glyph unicode="0" horiz-adv-x="1191" d="M135 715q0 116 14 219t47.5 200.5t85 168t132.5 113t184 42.5q102 0 182.5 -42.5t132 -113t86 -168t48.5 -201t14 -218.5t-14 -218.5t-48.5 -200.5t-86 -167t-132 -112t-182.5 -42q-86 0 -157 29t-120.5 81.5t-86.5 121.5t-58 153.5t-31 172t-10 182.5zM209 715 q0 -105 11.5 -198.5t40 -182t72 -151.5t111.5 -101.5t154 -38.5q85 0 152.5 38t111 102t72.5 152t41 181.5t12 198.5t-12 199t-41 182.5t-72.5 153t-111 103t-152.5 38.5q-86 0 -154 -38.5t-111.5 -102.5t-72 -153t-40 -183t-11.5 -199z" />
<glyph unicode="1" horiz-adv-x="643" d="M43 1208l274 226h91v-1434h-72v1362h-4l-244 -201z" />
<glyph unicode="2" horiz-adv-x="1118" d="M113 0v92q0 80 27.5 153t74.5 130.5t107.5 111t127.5 100.5t133.5 92t127 91.5t107.5 94t74.5 104.5t27.5 118q0 123 -100.5 213.5t-262.5 90.5q-73 0 -139 -23t-107 -55.5t-72 -65t-44 -55.5l-13 -23q-10 5 -29.5 15.5t-29.5 15.5q3 5 8 14.5t25 36.5t42.5 51t60.5 54 t79.5 51.5t99 36t119.5 14.5q99 0 183 -31.5t138.5 -84t84.5 -119t30 -136.5q0 -68 -27.5 -130.5t-74.5 -113.5t-107.5 -99.5t-127.5 -94.5t-133.5 -92t-127 -97t-107.5 -105t-74.5 -121.5t-27.5 -141.5v-26h830v-66h-903z" />
<glyph unicode="3" horiz-adv-x="1142" d="M90 256l64 23q2 -5 5.5 -13.5t17.5 -33t31.5 -47t49 -50t68 -47t90 -32.5t114.5 -13q187 0 291.5 85t104.5 255q0 64 -24 118.5t-61.5 91t-85.5 62.5t-95.5 37.5t-90.5 12.5h-98v67h104q54 2 108 22.5t100 58t75 97.5t29 133q0 128 -89 218.5t-257 89.5q-74 0 -136 -19 t-97 -45.5t-60 -53.5t-34 -46l-9 -19l-62 25q4 9 11.5 24t39.5 54t72.5 68.5t113.5 54t159 24.5q105 0 188 -32t133 -86t75.5 -119.5t25.5 -137.5q0 -136 -84 -227t-197 -115v-4q47 -9 91.5 -28t86 -50.5t73 -70.5t50 -92.5t18.5 -112.5q0 -205 -123 -305.5t-344 -102.5 q-71 0 -134 15.5t-106.5 40.5t-79.5 54.5t-58 59.5t-37 55t-21 40z" />
<glyph unicode="4" horiz-adv-x="1142" d="M55 381v92l682 961h88v-988h250v-65h-250v-381h-71v381h-699zM125 446h629v885h-4l-625 -880v-5z" />
<glyph unicode="5" horiz-adv-x="1107" d="M90 236l60 30q53 -105 147.5 -164t222.5 -59q120 0 217 62t147 154.5t50 191.5q0 163 -108 271.5t-296 108.5q-138 0 -284 -96l-51 25l12 674h725v-66h-653l-11 -541q1 0 2 -1t2 -1q115 74 258 74q221 0 350.5 -127.5t129.5 -320.5q0 -86 -35.5 -171t-98 -153t-156 -110 t-200.5 -42q-150 0 -260 69.5t-170 191.5z" />
<glyph unicode="6" horiz-adv-x="1185" d="M119 649q0 111 22.5 222t73 217.5t122 188t178.5 131.5t235 50q70 0 135.5 -15t96.5 -29l30 -15l-33 -60q-10 6 -29 14.5t-78.5 23t-121.5 14.5q-107 0 -197.5 -41.5t-153 -110t-108 -161t-68.5 -192t-28 -204.5h4q74 105 190.5 170.5t251.5 65.5q195 0 320.5 -130.5 t125.5 -332.5q0 -217 -128.5 -348.5t-321.5 -131.5q-153 0 -271.5 87t-182.5 240.5t-64 346.5zM195 578q17 -238 137.5 -386.5t304.5 -148.5q161 0 269 112.5t108 299.5q0 173 -105 284t-268 111q-142 0 -261 -78t-185 -194z" />
<glyph unicode="7" horiz-adv-x="937" d="M49 1368v66h850v-88l-618 -1346h-80l628 1364v4h-780z" />
<glyph unicode="8" horiz-adv-x="1142" d="M135 346q0 69 19 125t48 95t76 73t90.5 55t104.5 45v4q-68 31 -113 59t-89.5 70t-66.5 99t-22 129q0 162 116 260t282 98q174 0 278.5 -91t104.5 -267q0 -62 -16 -113.5t-41.5 -87.5t-66.5 -67.5t-80 -52t-93 -42.5v-4q63 -28 103 -48t89.5 -55t78 -72t48 -91.5 t19.5 -120.5q0 -115 -63.5 -201.5t-158 -128t-202.5 -41.5q-67 0 -129 12.5t-120 41.5t-101 71t-69 105.5t-26 140.5zM209 346q0 -64 21.5 -115.5t57 -86t84 -58t100.5 -33.5t108 -10q90 0 167.5 33.5t129 104.5t51.5 165q0 35 -7 66t-16.5 55.5t-29.5 48.5t-36 41t-46.5 36 t-50.5 31t-58 29t-60 26t-65 26q-41 -16 -67 -26.5t-63 -27t-60.5 -32t-51.5 -36.5t-45 -44.5t-33 -52.5t-23 -64t-7 -76zM258 1100q0 -41 10 -77t24 -63t41 -52t49.5 -42t61 -36.5t64.5 -30.5t70 -29q58 22 96.5 39.5t83 46.5t70.5 61t43.5 79t17.5 104q0 143 -83.5 217 t-225.5 74q-135 0 -228.5 -79.5t-93.5 -211.5z" />
<glyph unicode="9" horiz-adv-x="1183" d="M96 979q0 217 129 348t322 131q153 0 271.5 -87t182.5 -240.5t64 -346.5q0 -111 -22.5 -222t-73 -217.5t-122 -188t-178.5 -131.5t-235 -50q-70 0 -135.5 15t-96.5 30l-30 15l33 59q10 -6 29 -14.5t78.5 -22.5t121.5 -14q107 0 197.5 41t153 110t108 161t68.5 191.5 t28 203.5h-4q-75 -104 -191 -169t-251 -65q-195 0 -321 130.5t-126 332.5zM170 979q0 -173 105 -284t268 -111q142 0 261 78t185 194q-17 238 -137.5 386.5t-304.5 148.5q-161 0 -269 -112.5t-108 -299.5z" />
<glyph unicode=":" horiz-adv-x="376" d="M152 0v174h73v-174h-73zM152 850v174h73v-174h-73z" />
<glyph unicode=";" horiz-adv-x="509" d="M102 -287h74l152 482h-78zM223 850v174h74v-174h-74z" />
<glyph unicode="&#x3c;" horiz-adv-x="1359" d="M82 627v73l1116 506v-73l-1032 -467v-4l1032 -469v-74z" />
<glyph unicode="=" horiz-adv-x="1374" d="M129 467v65h1116v-65h-1116zM129 795v65h1116v-65h-1116z" />
<glyph unicode="&#x3e;" horiz-adv-x="1359" d="M162 119v74l1032 469v4l-1032 467v73l1116 -506v-73z" />
<glyph unicode="?" horiz-adv-x="954" d="M88 1130q31 153 134 240.5t255 87.5q161 0 267 -90.5t106 -249.5q0 -60 -13.5 -108t-43 -87t-55.5 -64.5t-70 -61.5q-97 -78 -134.5 -140.5t-37.5 -171.5v-96h-74v96q0 88 23 151.5t61.5 107t114.5 106.5q36 30 58.5 52.5t47 55.5t36 72.5t11.5 87.5q0 127 -84 200 t-213 73q-126 0 -211 -73.5t-110 -201.5zM422 0v174h74v-174h-74z" />
<glyph unicode="@" horiz-adv-x="1677" d="M115 711q0 157 54 294.5t150.5 237.5t236.5 157.5t304 57.5q125 0 229.5 -21t193.5 -69.5t150 -122t95.5 -182.5t34.5 -248q0 -103 -38 -196.5t-96 -154.5t-125 -96.5t-128 -35.5q-74 0 -116.5 35.5t-53.5 81.5h-5q-35 -48 -95 -82.5t-138 -34.5q-133 0 -213 91.5 t-80 235.5q0 114 47 215t139.5 166.5t208.5 65.5q66 0 117.5 -36t75.5 -85h4l14 90h76l-96 -571q-2 -42 28 -73t87 -32q52 0 107 30.5t100.5 83.5t74.5 133t29 169q0 124 -31 222t-86 164t-134.5 109t-172 62t-203.5 19q-196 0 -350 -90t-237 -244.5t-83 -345.5 q0 -305 189.5 -486.5t497.5 -181.5q358 0 583 219l47 -49q-122 -117 -275 -177.5t-355 -60.5q-225 0 -397.5 89.5t-268.5 257t-96 389.5zM551 659q0 -114 58 -186t151 -72q81 0 140.5 39t88.5 88q10 62 32 188.5t32 188.5q-18 49 -67.5 91t-115.5 42q-140 0 -229.5 -114.5 t-89.5 -264.5z" />
<glyph unicode="A" d="M27 0l620 1434h80l614 -1434h-79l-177 412h-802l-179 -412h-77zM311 477h746l-369 866h-4z" />
<glyph unicode="B" horiz-adv-x="1286" d="M215 0v1434h371q106 0 194.5 -19t158.5 -58.5t109 -107t39 -157.5q0 -136 -83 -219t-211 -105v-4q188 -25 290.5 -124.5t102.5 -260.5q0 -99 -46 -173.5t-127 -118.5t-182 -65.5t-219 -21.5h-397zM289 66h323q103 0 190.5 18t157.5 54.5t110 98t40 142.5q0 168 -122 257 t-341 89h-358v-659zM289 791h354q52 0 102 9.5t99 32t86 56t59.5 86t22.5 117.5q0 96 -59.5 159.5t-152 90t-214.5 26.5h-297v-577z" />
<glyph unicode="C" horiz-adv-x="1425" d="M104 717q0 211 96 380.5t264 265t376 95.5q156 0 292.5 -60.5t208.5 -162.5l-55 -39q-64 89 -186 142t-260 53q-139 0 -261.5 -51t-210 -140t-138 -214t-50.5 -269q0 -192 85 -346t236 -241t339 -87q161 0 282 64.5t189 166.5l57 -36q-77 -115 -213 -189t-315 -74 q-157 0 -294 56t-234 154t-152.5 236t-55.5 296z" />
<glyph unicode="D" horiz-adv-x="1552" d="M215 0v1434h477q109 0 216 -28t204 -87t171.5 -142t118.5 -201.5t44 -256.5q0 -139 -44 -258t-118.5 -202.5t-171.5 -143t-204 -87.5t-216 -28h-477zM289 66h403q98 0 194 25.5t183.5 79.5t154.5 130t106.5 184t39.5 234q0 125 -39.5 232.5t-106.5 183t-154.5 129 t-183.5 79t-194 25.5h-403v-1302z" />
<glyph unicode="E" horiz-adv-x="1216" d="M215 0v1434h889v-66h-815v-590h766v-65h-766v-647h839v-66h-913z" />
<glyph unicode="F" horiz-adv-x="1146" d="M215 0v1434h864v-66h-790v-594h739v-65h-739v-709h-74z" />
<glyph unicode="G" horiz-adv-x="1501" d="M104 717q0 211 96 380.5t264 265t376 95.5q319 0 510 -188l-50 -49q-173 170 -460 170q-139 0 -261.5 -51t-210 -140t-138 -214t-50.5 -269q0 -192 85 -346t236 -241t339 -87q236 0 452 70v602h74v-652q-251 -88 -526 -88q-157 0 -294 56t-234 154t-152.5 236t-55.5 296z " />
<glyph unicode="H" horiz-adv-x="1503" d="M215 0v1434h74v-658h925v658h74v-1434h-74v711h-925v-711h-74z" />
<glyph unicode="I" horiz-adv-x="503" d="M215 0v1434h74v-1434h-74z" />
<glyph unicode="J" horiz-adv-x="1001" d="M43 264l66 15q22 -104 106.5 -170t210.5 -66q72 0 127.5 24.5t88 63t53.5 90.5t28.5 100.5t7.5 100.5v1012h74v-1012q0 -61 -9 -118t-35 -118.5t-66.5 -106.5t-110 -74.5t-158.5 -29.5q-152 0 -254 80t-129 209z" />
<glyph unicode="K" horiz-adv-x="1232" d="M215 0v1434h74v-803h4l770 803h94l-532 -555l600 -879h-84l-568 827l-284 -297v-530h-74z" />
<glyph unicode="L" horiz-adv-x="1069" d="M215 0v1434h74v-1368h741v-66h-815z" />
<glyph unicode="M" horiz-adv-x="1734" d="M215 0v1434h94l557 -1340h4l555 1340h95v-1434h-74v1292h-4l-535 -1292h-78l-536 1292h-4v-1292h-74z" />
<glyph unicode="N" horiz-adv-x="1517" d="M215 0v1434h98l912 -1344h4v1344h74v-1434h-99l-911 1341h-4v-1341h-74z" />
<glyph unicode="O" horiz-adv-x="1675" d="M102 717q0 211 96 380.5t264 265t376 95.5q207 0 375.5 -95.5t264 -265t95.5 -380.5q0 -158 -56 -296t-153.5 -236t-234 -154t-291.5 -56q-207 0 -375.5 95.5t-264.5 265.5t-96 381zM178 717q0 -144 50.5 -269t138 -214t210 -140t261.5 -51t261.5 51t209.5 140t137.5 214 t50.5 269t-50.5 269t-137.5 214t-209.5 140t-261.5 51t-261.5 -51t-210 -140t-138 -214t-50.5 -269z" />
<glyph unicode="P" horiz-adv-x="1157" d="M215 0v1434h360q245 0 376.5 -90.5t131.5 -274.5q0 -181 -130 -275t-378 -94h-286v-700h-74zM289 766h286q211 0 322 77.5t111 225.5q0 149 -112.5 224t-320.5 75h-286v-602z" />
<glyph unicode="Q" horiz-adv-x="1677" d="M104 717q0 211 96 380.5t264 265t376 95.5q207 0 375.5 -95.5t264 -265t95.5 -380.5q0 -151 -51.5 -284t-141.5 -229t-216 -155.5t-271 -68.5q53 -169 156.5 -265t240.5 -96v-63q-168 0 -291.5 111.5t-179.5 307.5q-204 4 -367.5 100.5t-256.5 265t-93 376.5zM180 717 q0 -144 50.5 -269t138 -214t210 -140t261.5 -51t261.5 51t209.5 140t137.5 214t50.5 269t-50.5 269t-137.5 214t-209.5 140t-261.5 51t-261.5 -51t-210 -140t-138 -214t-50.5 -269z" />
<glyph unicode="R" horiz-adv-x="1245" d="M215 0v1434h383q245 0 376.5 -90t131.5 -273q0 -294 -340 -354l424 -717h-82l-420 709q-54 -4 -90 -4h-309v-705h-74zM289 770h309q211 0 321.5 76.5t110.5 224.5q0 149 -112 223t-320 74h-309v-598z" />
<glyph unicode="S" horiz-adv-x="1077" d="M94 160l51 45q6 -7 17 -17.5t49.5 -38.5t81.5 -49.5t112 -39t142 -17.5q161 0 260.5 81t99.5 193q0 41 -11.5 78.5t-28 66t-47.5 57.5t-56 48t-69.5 44t-71 38t-76.5 37q-14 7 -21 10q-169 82 -236 128q-156 110 -168 262q-1 14 -1 28q0 143 126 243.5t320 100.5 q70 0 135 -14.5t108.5 -35t76.5 -40.5t48 -34l15 -15l-49 -47q-5 5 -13.5 13t-40 28.5t-67.5 36t-93.5 28.5t-119.5 13q-161 0 -265.5 -81t-104.5 -196q0 -53 21 -98.5t43.5 -74t78.5 -65t84.5 -50.5t103.5 -50q22 -11 33 -16q165 -80 218 -115q150 -94 187 -221 q15 -49 15 -107q0 -140 -119.5 -241t-314.5 -101q-81 0 -158 19t-128 46t-90.5 54.5t-58.5 46.5z" />
<glyph unicode="T" horiz-adv-x="1179" d="M37 1368v66h1106v-66h-516v-1368h-74v1368h-516z" />
<glyph unicode="U" horiz-adv-x="1454" d="M195 543v891h73v-891q0 -68 12 -132.5t44.5 -133t82 -119t132.5 -83t188 -32.5t188 32.5t132.5 83t82 119t44.5 133t12 132.5v891h74v-891q0 -77 -14 -151t-51.5 -151.5t-95.5 -134.5t-154 -94t-218 -37t-218 37t-153.5 94t-95 134.5t-51.5 151.5t-14 151z" />
<glyph unicode="V" horiz-adv-x="1294" d="M63 1434h78l504 -1356h4l506 1356h78l-537 -1434h-98z" />
<glyph unicode="W" horiz-adv-x="1945" d="M78 1434h78l381 -1336h4l385 1336h96l385 -1334h4l377 1334h78l-408 -1434h-98l-383 1333h-4l-387 -1333h-97z" />
<glyph unicode="X" horiz-adv-x="1183" d="M23 0l524 754l-479 680h86l438 -625h4l434 625h86l-479 -684l526 -750h-86l-485 692h-4l-479 -692h-86z" />
<glyph unicode="Y" horiz-adv-x="1296" d="M70 1434h84l493 -754h4l494 754h82l-541 -824v-610h-74v610z" />
<glyph unicode="Z" horiz-adv-x="1146" d="M55 0v61l926 1303v4h-903v66h997v-62l-928 -1302v-4h940v-66h-1032z" />
<glyph unicode="[" horiz-adv-x="573" d="M213 -315v1798h270v-66h-196v-1667h196v-65h-270z" />
<glyph unicode="\" horiz-adv-x="843" d="M76 1450h80l612 -1466h-80z" />
<glyph unicode="]" horiz-adv-x="573" d="M90 -250h197v1667h-197v66h270v-1798h-270v65z" />
<glyph unicode="^" horiz-adv-x="1208" d="M98 557l465 877h82l465 -877h-84l-420 801h-4l-422 -801h-82z" />
<glyph unicode="_" horiz-adv-x="1011" d="M0 -170h1012v-66h-1012v66z" />
<glyph unicode="`" horiz-adv-x="532" d="M102 1524h91l237 -291h-86z" />
<glyph unicode="a" horiz-adv-x="1120" d="M76 258q0 61 22.5 109.5t60.5 83t97.5 60.5t123 41.5t148 25.5t162 14.5t174.5 5.5v80q0 147 -92 226t-233 79q-111 0 -204.5 -35t-150.5 -92l-47 47q65 65 171 105.5t231 40.5q112 0 200 -40t142.5 -125.5t54.5 -205.5v-479q0 -67 29 -100t71 -33l21 2l12 -66 q-2 0 -13 -1t-20 -1q-60 0 -101.5 36t-51.5 118h-4q-190 -179 -406 -179q-59 0 -113 8.5t-106.5 29.5t-91.5 52.5t-62.5 81t-23.5 111.5zM150 258q0 -59 28.5 -103t76.5 -68t102.5 -35t115.5 -11q205 0 391 182v309q-103 -1 -184 -6t-166.5 -15.5t-148 -30.5t-113 -49 t-76.5 -73t-26 -100z" />
<glyph unicode="b" horiz-adv-x="1218" d="M172 0v1495h72v-610h4q141 164 354 164q143 0 263 -69.5t190.5 -193.5t70.5 -274t-70.5 -274t-190.5 -193.5t-263 -69.5q-216 0 -354 164h-4v-139h-72zM244 236q58 -93 152.5 -144t205.5 -51q189 0 321 135t132 336q0 131 -61 239.5t-164.5 170t-227.5 61.5 q-111 0 -204 -52.5t-154 -146.5v-548z" />
<glyph unicode="c" horiz-adv-x="1089" d="M92 512q0 163 74 287t196 187t273 63q131 0 228 -47t155 -130l-55 -38q-47 70 -130.5 109.5t-197.5 39.5q-130 0 -235.5 -55.5t-169.5 -164t-64 -251.5q0 -210 133 -340.5t348 -130.5q60 0 116 15.5t92.5 37.5t64.5 43.5t40 36.5l13 16l53 -38q-5 -7 -15.5 -19 t-46.5 -42.5t-76.5 -54t-106 -42.5t-134.5 -19q-248 0 -401.5 149t-153.5 388z" />
<glyph unicode="d" horiz-adv-x="1239" d="M92 512q0 150 70.5 274t190.5 193.5t263 69.5q214 0 355 -164h4v610h72v-1298q0 -66 29 -98.5t73 -32.5l20 2l11 -66q-1 0 -12 -1t-19 -1q-61 0 -106.5 38t-49.5 116h-4q-66 -84 -162 -131.5t-211 -47.5q-143 0 -263 69.5t-190.5 193.5t-70.5 274zM166 512 q0 -132 60.5 -240.5t163.5 -169.5t226 -61q111 0 206 51t153 144v548q-59 93 -153.5 146t-205.5 53q-187 0 -318.5 -135.5t-131.5 -335.5z" />
<glyph unicode="e" horiz-adv-x="1181" d="M92 512q0 163 74 287t196 187t273 63q111 0 200 -34.5t144.5 -94.5t85 -138t29.5 -168l-7 -96h-921q0 -213 143.5 -345t360.5 -132q62 0 121.5 13t100.5 32t73 37.5t47 31.5l16 13l45 -49q-6 -6 -18 -15.5t-52.5 -34.5t-84.5 -44t-111.5 -34.5t-136.5 -15.5 q-251 0 -414.5 150.5t-163.5 386.5zM172 584h846q1 18 1 36q-1 87 -33 161q-40 89 -131 145.5t-220 56.5q-119 0 -218.5 -47t-165 -138.5t-79.5 -213.5z" />
<glyph unicode="f" horiz-adv-x="497" d="M57 961v63h142v270q0 49 9 85.5t27.5 58.5t38 36t48.5 20t50 7.5t52 1.5q40 0 90 -8l-12 -65q-40 8 -78 8q-32 0 -54 -4t-47.5 -17t-39 -44t-13.5 -79v-270h209v-63h-209v-961h-71v961h-142z" />
<glyph unicode="g" horiz-adv-x="1191" d="M92 524q0 147 68.5 268t185.5 189t256 68q103 0 190.5 -43t151.5 -119h4v137h72v-995q0 -119 -44 -210t-119.5 -144t-167.5 -79t-197 -26q-166 0 -316 70l27 61q138 -66 289 -66q90 0 168.5 22.5t144 68t104 123.5t39.5 180v133h-4q-63 -76 -151.5 -119t-190.5 -43 q-139 0 -256 67.5t-185.5 188.5t-68.5 268zM158 524q0 -195 129 -326.5t315 -131.5q110 0 201.5 54t144.5 142v529q-59 90 -149.5 141t-196.5 51q-186 0 -315 -132t-129 -327z" />
<glyph unicode="h" horiz-adv-x="1249" d="M172 0v1495h72v-629h4q56 78 160 130.5t217 52.5q229 0 348 -113t119 -309v-627h-72v627q0 166 -100 261t-295 95q-130 0 -233 -62.5t-148 -156.5v-764h-72z" />
<glyph unicode="i" horiz-adv-x="428" d="M178 0v1024h72v-1024h-72zM178 1260v174h72v-174h-72z" />
<glyph unicode="j" horiz-adv-x="428" d="M-37 -352q58 0 92 5t65 21.5t44.5 52t13.5 93.5v1204h72v-1204q0 -65 -13.5 -109t-34.5 -69.5t-60.5 -39t-78 -17t-100.5 -3.5v66zM178 1260v174h72v-174h-72z" />
<glyph unicode="k" horiz-adv-x="1024" d="M172 0v1495h72v-1032h4l633 561h104l-469 -410l492 -614h-84l-457 569l-223 -196v-373h-72z" />
<glyph unicode="l" horiz-adv-x="440" d="M174 190v1305h72v-1305q1 -63 23.5 -93.5t56.5 -30.5l20 2l12 -66q-2 0 -12.5 -1t-19.5 -1q-65 0 -108.5 46t-43.5 144z" />
<glyph unicode="m" horiz-adv-x="1814" d="M172 0v1024h72v-152h4q48 78 132.5 127.5t176.5 49.5q139 0 232 -55.5t124 -153.5h5q42 90 139.5 149.5t199.5 59.5q186 0 293 -117t107 -305v-627h-72v627q0 165 -87 260.5t-251 95.5q-93 0 -180.5 -57.5t-120.5 -149.5v-776h-72v752q0 104 -88.5 167.5t-228.5 63.5 q-98 0 -186.5 -57.5t-126.5 -145.5v-780h-72z" />
<glyph unicode="n" horiz-adv-x="1249" d="M172 0v1024h72v-158h4q56 78 160 130.5t217 52.5q229 0 348 -113t119 -309v-627h-72v627q0 166 -100 261t-295 95q-130 0 -233 -62.5t-148 -156.5v-764h-72z" />
<glyph unicode="o" horiz-adv-x="1271" d="M92 512q0 231 154 384t389 153q157 0 282 -70t194 -192.5t69 -274.5t-69 -274.5t-194 -192.5t-282 -70q-235 0 -389 153t-154 384zM166 512q0 -203 133 -337t336 -134q206 0 338.5 133.5t132.5 337.5q0 202 -132.5 336.5t-338.5 134.5q-203 0 -336 -134.5t-133 -336.5z " />
<glyph unicode="p" horiz-adv-x="1234" d="M55 1022q1 0 12 1t19 1q61 0 106.5 -38t49.5 -116h4q67 84 162 131.5t210 47.5q107 0 203.5 -41t167.5 -112t112.5 -171t41.5 -213t-41.5 -213t-112.5 -171t-167.5 -112t-203.5 -41q-213 0 -354 164h-4v-549h-72v1237q0 66 -29 98.5t-73 32.5l-20 -2zM260 240 q59 -93 153 -146t205 -53q123 0 226 61t164 169.5t61 240.5q0 199 -131.5 335t-319.5 136q-110 0 -205 -51.5t-153 -143.5v-548z" />
<glyph unicode="q" horiz-adv-x="1218" d="M92 512q0 150 70.5 274t190.5 193.5t263 69.5q217 0 355 -164h4v139h72v-1434h-72v549h-4q-65 -77 -156 -120.5t-199 -43.5q-143 0 -263 69.5t-190.5 193.5t-70.5 274zM166 512q0 -132 60.5 -240.5t163.5 -169.5t226 -61q111 0 205.5 53t153.5 146v548q-58 92 -153 143.5 t-206 51.5q-187 0 -318.5 -135.5t-131.5 -335.5z" />
<glyph unicode="r" horiz-adv-x="675" d="M172 0v1024h72v-168h4q45 70 128 123t177 53q72 0 113 -14l-19 -64q-35 13 -94 13q-108 0 -197 -67t-112 -138v-762h-72z" />
<glyph unicode="s" horiz-adv-x="903" d="M84 125l49 45q5 -5 13.5 -14t40 -31t66.5 -39t91.5 -31t116.5 -14q131 0 206.5 57t75.5 142q0 43 -19 79t-38.5 57t-69.5 45.5t-72.5 32.5t-87.5 30q-9 3 -14 5q-45 14 -72.5 23.5t-67.5 25.5t-64.5 30.5t-52.5 37t-43 46.5t-25.5 57t-10.5 71q0 116 106.5 192.5 t264.5 76.5q57 0 109.5 -11.5t87.5 -28t61.5 -33.5t38.5 -28l12 -12l-47 -47q-4 4 -11 10t-31.5 22.5t-52.5 29t-73 22.5t-94 10q-127 0 -212 -57t-85 -146q0 -33 10.5 -60.5t33.5 -49.5t45.5 -38t61 -32t64 -25t70.5 -24q47 -15 74 -24.5t69.5 -27t67.5 -33t55.5 -39.5 t46.5 -50t27.5 -61t11.5 -76q0 -112 -95.5 -188.5t-260.5 -76.5q-68 0 -132 15.5t-106.5 37.5t-75.5 44t-48 38z" />
<glyph unicode="t" horiz-adv-x="555" d="M29 961v63h186v360h72v-360h215v-63h-215v-760q0 -48 13.5 -79t38.5 -44t47 -17t54 -4q33 0 78 9l12 -66q-50 -8 -90 -8q-31 0 -52 1.5t-50 7.5t-48.5 20t-38 36t-27.5 58.5t-9 85.5v760h-186z" />
<glyph unicode="u" horiz-adv-x="1247" d="M156 397v627h71v-627q0 -165 101 -260.5t295 -95.5q130 0 234 63t147 156v764h71v-1024h-71v158h-5q-56 -78 -159.5 -130.5t-216.5 -52.5q-229 0 -348 113t-119 309z" />
<glyph unicode="v" horiz-adv-x="1110" d="M53 1024h78l420 -940h4l426 940h78l-467 -1024h-78z" />
<glyph unicode="w" horiz-adv-x="1634" d="M70 1024h73l297 -915h4l332 915h76l338 -918h4l295 918h74l-330 -1024h-76l-340 924h-4l-334 -924h-76z" />
<glyph unicode="x" horiz-adv-x="958" d="M35 0l397 537l-369 487h84l330 -438h4l328 438h86l-373 -494l402 -530h-86l-361 481h-4l-354 -481h-84z" />
<glyph unicode="y" horiz-adv-x="1105" d="M49 1024h78l420 -934h4l422 934h80l-551 -1208q-39 -84 -75.5 -131.5t-96 -75t-146.5 -27.5q-67 0 -129 12l15 64q56 -12 114 -12q64 0 110 23t77 63t65 110l74 162z" />
<glyph unicode="z" horiz-adv-x="948" d="M55 0v55l713 901v5h-682v63h778v-55l-712 -901v-5h735v-63h-832z" />
<glyph unicode="{" horiz-adv-x="550" d="M90 551v65q56 0 79.5 48.5t23.5 156.5v385q0 145 70 211t179 66h29v-66h-29q-77 0 -127.5 -50.5t-50.5 -160.5v-385q0 -197 -84 -235v-4q84 -41 84 -238v-385q0 -110 50 -159.5t128 -49.5h29v-65h-29q-52 0 -94.5 14t-78.5 44.5t-56 85.5t-20 130v385q0 109 -23.5 158 t-79.5 49z" />
<glyph unicode="|" horiz-adv-x="491" d="M209 -506v2026h74v-2026h-74z" />
<glyph unicode="}" horiz-adv-x="550" d="M80 -250h26q78 0 128.5 49.5t50.5 159.5v385q0 195 84 238v4q-84 40 -84 235v385q0 110 -51 160.5t-128 50.5h-26v66h26q52 0 95.5 -14.5t79.5 -46t56.5 -86.5t20.5 -130v-385q0 -108 23.5 -156.5t79.5 -48.5v-65q-56 0 -79.5 -49t-23.5 -158v-385q0 -144 -71 -209 t-181 -65h-26v65z" />
<glyph unicode="~" horiz-adv-x="1392" d="M168 520q19 68 40 116t51.5 90t74 63.5t100.5 21.5q133 0 314 -135q122 -94 215 -94q75 0 121.5 57.5t78.5 165.5h72q-20 -69 -41 -116.5t-52.5 -90t-76 -63.5t-102.5 -21q-119 0 -258 104q-160 125 -271 125q-72 0 -118 -58.5t-76 -164.5h-72z" />
<glyph unicode="&#xa1;" horiz-adv-x="471" d="M199 -410v1045h73v-1045h-73zM199 850v174h73v-174h-73z" />
<glyph unicode="&#xa2;" horiz-adv-x="1163" d="M113 512q0 226 134 367.5t341 164.5v183h71v-178q255 -3 379 -177l-55 -38q-47 70 -130.5 109.5t-197.5 39.5q-130 0 -235.5 -55.5t-169.5 -164t-64 -251.5q0 -210 133.5 -340.5t348.5 -130.5q60 0 115.5 15.5t92 37.5t64.5 43.5t40 36.5l13 16l54 -38l-1 -1 q-64 -81 -171 -130q-101 -47 -216 -46v-178h-71v185q-216 23 -345.5 167t-129.5 363z" />
<glyph unicode="&#xa3;" horiz-adv-x="1105" d="M106 18q73 92 132 292.5t65 381.5h-182v66h184q0 47 1 141.5t1 142.5q1 183 108.5 299.5t272.5 116.5q107 0 236 -76l-33 -57q-110 66 -203 66q-133 0 -220.5 -98t-88.5 -251v-284h391v-66h-393q-6 -153 -51 -324.5t-107 -287.5l2 -4q86 28 152 28q57 0 163.5 -28.5 t172.5 -32.5q77 0 139.5 24.5t136.5 84.5l41 -54q-84 -68 -156 -95.5t-161 -27.5q-67 0 -177.5 31t-158.5 31q-107 0 -226 -64z" />
<glyph unicode="&#xa4;" horiz-adv-x="1456" d="M141 88l207 207q-110 137 -110 332q0 188 112 325l-196 205l51 45l190 -198q138 122 334 122q197 0 330 -120l194 194l52 -45l-199 -199q115 -137 115 -329q0 -196 -111 -332l207 -203l-51 -49l-205 201q-129 -123 -332 -123q-199 0 -334 125l-202 -203zM313 627 q0 -186 115 -312.5t301 -126.5q188 0 303 126.5t115 312.5q0 183 -115 307.5t-303 124.5q-186 0 -301 -124.5t-115 -307.5z" />
<glyph unicode="&#xa5;" horiz-adv-x="1298" d="M72 1434h84l493 -754h4l494 754h82l-524 -797h313v-66h-330v-231h330v-66h-330v-274h-74v274h-340v66h340v231h-340v66h322z" />
<glyph unicode="&#xa6;" horiz-adv-x="507" d="M217 -354v708h74v-708h-74zM217 657v709h74v-709h-74z" />
<glyph unicode="&#xa7;" horiz-adv-x="1011" d="M109 -104l49 47q5 -5 14 -13.5t41.5 -30.5t68 -39t93 -30.5t117.5 -13.5q132 0 213 64t81 147q0 32 -10.5 62t-23.5 52t-42 47t-48.5 40t-61 38t-61.5 33t-68 33q-49 24 -75 37t-68 36.5t-65.5 41.5t-53 45.5t-44 54t-25.5 61t-11 72.5q0 79 60.5 147.5t160.5 100.5v4 q-176 106 -176 250q0 115 108.5 196t270.5 80q58 -1 112 -12.5t89.5 -27.5t63 -32t40.5 -27l12 -11l-47 -50q-4 4 -11.5 10t-33 22t-55 28.5t-76 22.5t-96.5 10q-130 0 -215.5 -62.5t-85.5 -146.5q0 -29 10 -56t22 -47.5t39 -43.5t45 -36.5t57.5 -35t58 -31t63.5 -31.5 q48 -23 75.5 -37t70 -38t67.5 -43t55 -47.5t46 -57t27 -65t11 -76.5q0 -76 -58 -143t-157 -97v-4q86 -57 133 -119t47 -147q0 -110 -103 -194.5t-267 -84.5q-69 0 -133.5 15t-108 37t-77 44t-49.5 37zM205 680q0 -29 9.5 -56.5t23 -49t39 -44.5t46.5 -38.5t57.5 -36 t60 -32.5t65.5 -32q63 -29 100 -49q98 17 156.5 73.5t58.5 123.5q0 28 -6.5 53.5t-21.5 48t-29.5 41t-42 38.5t-45 33t-53.5 32l-54 28.5t-57 28.5q-24 10 -84 41q-100 -18 -161.5 -75.5t-61.5 -127.5z" />
<glyph unicode="&#xa8;" horiz-adv-x="667" d="M102 1260v174h74v-174h-74zM492 1260v174h73v-174h-73z" />
<glyph unicode="&#xa9;" horiz-adv-x="1732" d="M115 719q0 153 53 287.5t148 235t237 158.5t311 58q170 0 313 -58t239 -158.5t149 -235t53 -287.5q0 -154 -53 -290t-149 -236.5t-239 -159t-313 -58.5q-169 0 -311 58.5t-237 159t-148 236.5t-53 290zM190 719q0 -140 47.5 -263.5t133.5 -215t213.5 -144.5t279.5 -53 q153 0 281.5 53t215 144.5t134 215t47.5 263.5q0 139 -48 261.5t-134 213.5t-214.5 144t-281.5 53q-202 0 -357 -91t-236 -243t-81 -338zM444 723q0 195 127 323t318 128q95 0 178 -37t127 -99l-55 -41q-35 50 -103 79.5t-147 29.5q-159 0 -264 -109t-105 -274 q0 -164 104.5 -272.5t264.5 -108.5q90 0 158 36t108 93l55 -39q-49 -69 -131 -113.5t-190 -44.5q-193 0 -319 127.5t-126 321.5z" />
<glyph unicode="&#xaa;" horiz-adv-x="815" d="M127 1016q0 48 22.5 84t58.5 57t92 34.5t110.5 18.5t126.5 7v34q0 68 -43.5 105t-108.5 37q-55 0 -102 -17.5t-74 -44.5l-47 45q35 37 94 59.5t129 22.5q97 0 160 -54t63 -153v-252q0 -63 62 -63h12v-64h-12q-102 0 -113 84h-4q-80 -98 -205 -98q-42 0 -78.5 7.5 t-70 24.5t-53 49t-19.5 77zM201 1024q0 -38 23.5 -61.5t54.5 -31t69 -7.5q96 0 189 86v143q-74 -2 -128.5 -7.5t-105 -19t-76.5 -39.5t-26 -63z" />
<glyph unicode="&#xab;" horiz-adv-x="1009" d="M119 524l276 422h84l-278 -422l276 -420h-84zM518 524l277 422h84l-279 -422l277 -420h-84z" />
<glyph unicode="&#xac;" horiz-adv-x="1361" d="M137 786v66h1051v-567h-74v501h-977z" />
<glyph unicode="&#xad;" horiz-adv-x="720" d="M115 500v65h491v-65h-491z" />
<glyph unicode="&#xae;" horiz-adv-x="1732" d="M115 719q0 153 53 287.5t148 235t237 158.5t311 58q170 0 313 -58t239 -158.5t149 -235t53 -287.5q0 -154 -53 -290t-149 -236.5t-239 -159t-313 -58.5q-169 0 -311 58.5t-237 159t-148 236.5t-53 290zM190 719q0 -140 47.5 -263.5t133.5 -215t213.5 -144.5t279.5 -53 q153 0 281.5 53t215 144.5t134 215t47.5 263.5q0 139 -48 261.5t-134 213.5t-214.5 144t-281.5 53q-202 0 -357 -91t-236 -243t-81 -338zM598 289v870h248q307 0 307 -223q0 -173 -190 -215l256 -432h-82l-250 422q-16 -2 -51 -2h-164v-420h-74zM672 774h172q115 0 174 41.5 t59 120.5q0 78 -60.5 118t-172.5 40h-172v-320z" />
<glyph unicode="&#xaf;" horiz-adv-x="751" d="M102 1323v66h547v-66h-547z" />
<glyph unicode="&#xb0;" horiz-adv-x="802" d="M119 1176q0 123 80 202.5t202 79.5q123 0 203 -79.5t80 -202.5q0 -122 -80 -202.5t-203 -80.5q-121 0 -201.5 80.5t-80.5 202.5zM193 1176q0 -92 59.5 -153.5t148.5 -61.5q90 0 149.5 61t59.5 154q0 94 -59 154.5t-150 60.5q-90 0 -149 -61t-59 -154z" />
<glyph unicode="&#xb1;" horiz-adv-x="1480" d="M182 72v65h1116v-65h-1116zM182 793v65h523v375h73v-375h520v-65h-520v-369h-73v369h-523z" />
<glyph unicode="&#xb2;" horiz-adv-x="862" d="M147 588v84q0 57 26.5 108t69 90t93.5 75t102 69t93.5 65t69 70t26.5 78q0 65 -55 114.5t-146 49.5q-41 0 -77.5 -13t-59.5 -31.5t-40 -36.5t-25 -31l-7 -13q-33 20 -61 32q3 7 10 17.5t31 38t52.5 48.5t76 38.5t100.5 17.5q124 0 199 -69.5t75 -161.5q0 -49 -26.5 -94 t-68.5 -80.5t-93.5 -69.5t-102.5 -68t-93 -69.5t-68.5 -80t-26.5 -93.5v-19h481v-65h-555z" />
<glyph unicode="&#xb3;" horiz-adv-x="827" d="M121 733l59 29l5 -8q5 -9 10 -17.5t15.5 -21t22 -23.5t29.5 -22.5t37.5 -19.5t46 -13.5t55.5 -5.5q105 0 163.5 45t58.5 137q0 44 -20 79.5t-51.5 55.5t-65 30.5t-64.5 10.5h-70v66h70q66 0 121 46t55 124q0 69 -49 117.5t-141 48.5q-23 0 -44.5 -3t-38.5 -9t-31.5 -12.5 t-25.5 -15t-20 -16t-15.5 -16t-10.5 -13.5l-8 -10l-3 -6l-57 33q6 11 13 21.5t29 33.5t47.5 38.5t69.5 28.5t95 13q127 0 196.5 -69t69.5 -164q0 -77 -42.5 -127.5t-105.5 -71.5v-4q69 -15 119.5 -70t50.5 -139q0 -125 -78 -187.5t-217 -62.5q-195 0 -280 170z" />
<glyph unicode="&#xb4;" horiz-adv-x="532" d="M102 1233l236 291h92l-244 -291h-84z" />
<glyph unicode="&#xb5;" horiz-adv-x="1339" d="M203 -410v1434h71v-637q3 -161 104 -253.5t292 -92.5q130 0 234 63t147 156v764h71v-1024h-71v158h-4q-56 -78 -160 -130.5t-217 -52.5q-152 0 -251 53.5t-140 149.5h-5v-588h-71z" />
<glyph unicode="&#xb6;" horiz-adv-x="1245" d="M72 1016q0 197 124 308.5t339 109.5h471v-1690h-74v1624h-324v-1624h-73v895q-215 0 -339 100t-124 277z" />
<glyph unicode="&#xb7;" horiz-adv-x="331" d="M129 598v174h74v-174h-74z" />
<glyph unicode="&#xb8;" horiz-adv-x="618" d="M102 -389l35 55q23 -14 68 -24.5t92 -10.5q60 0 102.5 22.5t42.5 70.5q0 38 -35 57.5t-83 19.5q-76 0 -125 -34l-41 43l129 190h80l-125 -166l4 -2q44 21 98 21q67 0 119.5 -32.5t52.5 -99.5q0 -42 -19 -73.5t-51.5 -48.5t-69.5 -25t-79 -8q-56 0 -110.5 13t-84.5 32z " />
<glyph unicode="&#xb9;" horiz-adv-x="499" d="M78 1303l160 131h92v-846h-72v770h-4l-131 -107z" />
<glyph unicode="&#xba;" horiz-adv-x="845" d="M119 1157q0 129 85.5 215t217.5 86q133 0 219 -85.5t86 -215.5q0 -128 -86 -213.5t-219 -85.5q-131 0 -217 85.5t-86 213.5zM195 1157q0 -99 64.5 -165t162.5 -66q99 0 164 66t65 165q0 100 -65 167t-164 67q-98 0 -162.5 -67t-64.5 -167z" />
<glyph unicode="&#xbb;" horiz-adv-x="1009" d="M131 946h84l277 -422l-275 -420h-84l277 420zM530 946h84l277 -422l-275 -420h-84l277 420z" />
<glyph unicode="&#xbc;" horiz-adv-x="1550" d="M72 1319l159 131h93v-864h-72v788h-4l-131 -106zM227 -35l924 1522h80l-924 -1522h-80zM846 213v86l401 565h86v-585h133v-66h-133v-213h-73v213h-414zM924 279h336v477h-5l-331 -473v-4z" />
<glyph unicode="&#xbd;" horiz-adv-x="1640" d="M72 1319l159 131h93v-864h-72v788h-4l-131 -106zM227 -35l924 1522h80l-924 -1522h-80zM971 0v84q0 57 27 108.5t70 91t95 76.5t104.5 70.5t95.5 66.5t70 71t27 77q0 67 -56 116.5t-149 49.5q-43 0 -80.5 -13t-61 -31.5t-41 -36.5t-24.5 -31l-8 -13l-59 31q3 7 10 17.5 t31 38.5t53 49.5t77.5 39t102.5 17.5q127 0 203 -70t76 -164q0 -50 -27 -95t-70 -80.5t-95 -70t-103.5 -68.5t-94.5 -70t-70 -81.5t-27 -95.5v-18h491v-66h-567z" />
<glyph unicode="&#xbe;" horiz-adv-x="1708" d="M90 752l60 28l5 -8q5 -9 10 -17.5t15.5 -21t22 -23.5t29.5 -22.5t37.5 -19.5t46 -13.5t55.5 -5.5q104 0 161.5 45.5t57.5 136.5q0 57 -34.5 99t-78.5 60t-86 18h-69v65h69q66 0 121 46.5t55 123.5q0 68 -49 116t-143 48q-135 0 -195 -100l-57 32q6 12 13 22t29 33 t47.5 39t69 29t93.5 13q128 0 197 -69.5t69 -162.5q0 -76 -43 -128t-104 -71v-4q70 -20 121 -73.5t51 -135.5q0 -124 -78 -186.5t-217 -62.5q-196 0 -281 170zM389 -35l924 1522h82l-924 -1522h-82zM1010 213v86l401 565h86v-585h133v-66h-133v-213h-74v213h-413zM1085 279 h338v477h-4l-334 -473v-4z" />
<glyph unicode="&#xbf;" horiz-adv-x="935" d="M94 -90q0 60 13.5 108t43 87t55.5 64.5t70 61.5q97 78 135 140.5t38 171.5v92h73v-92q0 -67 -11 -116.5t-37.5 -92t-59.5 -76t-90 -80.5q-49 -41 -77.5 -70.5t-52.5 -82.5t-24 -115q0 -127 84 -199.5t213 -72.5q126 0 211 73t110 201l68 -14q-31 -153 -134 -240.5 t-255 -87.5q-161 0 -267 90.5t-106 249.5zM449 850v174h73v-174h-73z" />
<glyph unicode="&#xc0;" d="M27 0l620 1434h80l614 -1434h-79l-177 412h-802l-179 -412h-77zM311 477h746l-369 866h-4zM399 1843h93l235 -291h-84z" />
<glyph unicode="&#xc1;" d="M27 0l620 1434h80l614 -1434h-79l-177 412h-802l-179 -412h-77zM311 477h746l-369 866h-4zM641 1552l238 291h90l-242 -291h-86z" />
<glyph unicode="&#xc2;" d="M27 0l620 1434h80l614 -1434h-79l-177 412h-802l-179 -412h-77zM311 477h746l-369 866h-4zM414 1552l227 297h82l229 -297h-86l-182 234h-4l-180 -234h-86z" />
<glyph unicode="&#xc3;" d="M27 0l620 1434h80l614 -1434h-79l-177 412h-802l-179 -412h-77zM311 477h746l-369 866h-4zM362 1593q21 89 64.5 139t105.5 50q74 0 189 -76q73 -49 121 -49q71 0 104 115h70q-46 -183 -172 -183q-68 0 -156 58q-98 67 -153 67q-35 0 -62 -33t-41 -88h-70z" />
<glyph unicode="&#xc4;" d="M27 0l620 1434h80l614 -1434h-79l-177 412h-802l-179 -412h-77zM311 477h746l-369 866h-4zM455 1638v174h73v-174h-73zM844 1638v174h74v-174h-74z" />
<glyph unicode="&#xc5;" d="M27 0l620 1434h80l614 -1434h-79l-177 412h-802l-179 -412h-77zM311 477h746l-369 866h-4zM492 1724q0 81 57 137t137 56q79 0 137 -56t58 -137q0 -82 -57.5 -137t-137.5 -55q-81 0 -137.5 55t-56.5 137zM557 1724q0 -55 37 -91t92 -36q54 0 92.5 36.5t38.5 90.5 q0 53 -39 90t-92 37q-54 0 -91.5 -36.5t-37.5 -90.5z" />
<glyph unicode="&#xc7;" horiz-adv-x="1425" d="M104 717q0 211 96 380.5t264 265t376 95.5q156 0 292.5 -60.5t208.5 -162.5l-55 -39q-64 89 -186 142t-260 53q-139 0 -261.5 -51t-210 -140t-138 -214t-50.5 -269q0 -192 85 -346t236 -241t339 -87q161 0 282 64.5t189 166.5l57 -36q-84 -124 -219 -193t-313 -70 l-107 -141l4 -2q44 21 98 21q67 0 120 -32.5t53 -99.5q0 -55 -34 -91.5t-81 -50t-105 -13.5q-56 0 -110 13t-84 32l35 55q23 -14 67.5 -24.5t91.5 -10.5q60 0 103 22.5t43 70.5q0 38 -35.5 57.5t-83.5 19.5q-76 0 -125 -34l-41 43l115 170q-191 18 -340 117t-232.5 260.5 t-83.5 359.5z" />
<glyph unicode="&#xc8;" horiz-adv-x="1216" d="M215 0v1434h889v-66h-815v-590h766v-65h-766v-647h839v-66h-913zM434 1843h92l236 -291h-84z" />
<glyph unicode="&#xc9;" horiz-adv-x="1216" d="M215 0v1434h889v-66h-815v-590h766v-65h-766v-647h839v-66h-913zM580 1552l235 291h92l-243 -291h-84z" />
<glyph unicode="&#xca;" horiz-adv-x="1216" d="M215 0v1434h889v-66h-815v-590h766v-65h-766v-647h839v-66h-913zM397 1552l228 297h82l229 -297h-86l-182 234h-4l-181 -234h-86z" />
<glyph unicode="&#xcb;" horiz-adv-x="1216" d="M215 0v1434h889v-66h-815v-590h766v-65h-766v-647h839v-66h-913zM434 1638v174h74v-174h-74zM823 1638v174h74v-174h-74z" />
<glyph unicode="&#xcc;" horiz-adv-x="501" d="M-35 1843h90l238 -291h-86zM215 0v1434h72v-1434h-72z" />
<glyph unicode="&#xcd;" horiz-adv-x="501" d="M209 1552l235 291h93l-244 -291h-84zM213 0v1434h74v-1434h-74z" />
<glyph unicode="&#xce;" horiz-adv-x="501" d="M-18 1552l227 297h82l229 -297h-86l-180 234h-4l-182 -234h-86zM215 0v1434h72v-1434h-72z" />
<glyph unicode="&#xcf;" horiz-adv-x="501" d="M18 1638v174h74v-174h-74zM215 0v1434h72v-1434h-72zM408 1638v174h73v-174h-73z" />
<glyph unicode="&#xd0;" horiz-adv-x="1566" d="M82 723v65h147v646h478q109 0 215.5 -28t204 -87t171.5 -142t118 -201.5t44 -256.5q0 -139 -44 -258t-118 -202.5t-171.5 -143t-204 -87.5t-215.5 -28h-478v723h-147zM303 66h404q98 0 194 25.5t183.5 79.5t154 130t106 184t39.5 234q0 125 -39.5 232.5t-106 183 t-154 129t-183.5 79t-194 25.5h-404v-580h594v-65h-594v-657z" />
<glyph unicode="&#xd1;" horiz-adv-x="1519" d="M215 0v1434h100l912 -1344h4v1344h74v-1434h-101l-911 1341h-4v-1341h-74zM438 1593q21 89 64.5 139t105.5 50q74 0 189 -76q73 -49 121 -49q71 0 104 115h70q-46 -183 -172 -183q-68 0 -156 58q-98 67 -154 67q-35 0 -61.5 -33t-40.5 -88h-70z" />
<glyph unicode="&#xd2;" horiz-adv-x="1675" d="M102 717q0 211 96 380.5t264 265t376 95.5q207 0 375.5 -95.5t264 -265t95.5 -380.5q0 -158 -56 -296t-153.5 -236t-234 -154t-291.5 -56q-207 0 -375.5 95.5t-264.5 265.5t-96 381zM178 717q0 -144 50.5 -269t138 -214t210 -140t261.5 -51t261.5 51t209.5 140t137.5 214 t50.5 269t-50.5 269t-137.5 214t-209.5 140t-261.5 51t-261.5 -51t-210 -140t-138 -214t-50.5 -269zM635 1843h90l238 -291h-86z" />
<glyph unicode="&#xd3;" horiz-adv-x="1675" d="M102 717q0 211 96 380.5t264 265t376 95.5q207 0 375.5 -95.5t264 -265t95.5 -380.5q0 -158 -56 -296t-153.5 -236t-234 -154t-291.5 -56q-207 0 -375.5 95.5t-264.5 265.5t-96 381zM178 717q0 -144 50.5 -269t138 -214t210 -140t261.5 -51t261.5 51t209.5 140t137.5 214 t50.5 269t-50.5 269t-137.5 214t-209.5 140t-261.5 51t-261.5 -51t-210 -140t-138 -214t-50.5 -269zM748 1552l237 291h90l-241 -291h-86z" />
<glyph unicode="&#xd4;" horiz-adv-x="1675" d="M102 717q0 211 96 380.5t264 265t376 95.5q207 0 375.5 -95.5t264 -265t95.5 -380.5q0 -158 -56 -296t-153.5 -236t-234 -154t-291.5 -56q-207 0 -375.5 95.5t-264.5 265.5t-96 381zM178 717q0 -144 50.5 -269t138 -214t210 -140t261.5 -51t261.5 51t209.5 140t137.5 214 t50.5 269t-50.5 269t-137.5 214t-209.5 140t-261.5 51t-261.5 -51t-210 -140t-138 -214t-50.5 -269zM567 1552l230 297h82l229 -297h-88l-180 234h-4l-181 -234h-88z" />
<glyph unicode="&#xd5;" horiz-adv-x="1675" d="M102 717q0 211 96 380.5t264 265t376 95.5q207 0 375.5 -95.5t264 -265t95.5 -380.5q0 -158 -56 -296t-153.5 -236t-234 -154t-291.5 -56q-207 0 -375.5 95.5t-264.5 265.5t-96 381zM178 717q0 -144 50.5 -269t138 -214t210 -140t261.5 -51t261.5 51t209.5 140t137.5 214 t50.5 269t-50.5 269t-137.5 214t-209.5 140t-261.5 51t-261.5 -51t-210 -140t-138 -214t-50.5 -269zM516 1593q21 90 65 139.5t107 49.5q75 0 186 -76q73 -49 121 -49q72 0 105 115h69q-46 -183 -172 -183q-67 0 -155 58q-98 67 -154 67q-35 0 -61.5 -33t-40.5 -88h-70z" />
<glyph unicode="&#xd6;" horiz-adv-x="1675" d="M102 717q0 211 96 380.5t264 265t376 95.5q207 0 375.5 -95.5t264 -265t95.5 -380.5q0 -158 -56 -296t-153.5 -236t-234 -154t-291.5 -56q-207 0 -375.5 95.5t-264.5 265.5t-96 381zM178 717q0 -144 50.5 -269t138 -214t210 -140t261.5 -51t261.5 51t209.5 140t137.5 214 t50.5 269t-50.5 269t-137.5 214t-209.5 140t-261.5 51t-261.5 -51t-210 -140t-138 -214t-50.5 -269zM606 1638v174h74v-174h-74zM995 1638v174h74v-174h-74z" />
<glyph unicode="&#xd7;" horiz-adv-x="1103" d="M131 1036l53 49l369 -374l367 370l53 -49l-371 -370l369 -369l-53 -49l-365 368l-367 -370l-53 49l369 371z" />
<glyph unicode="&#xd8;" horiz-adv-x="1671" d="M100 717q0 211 96 380.5t264 265t376 95.5q277 0 481 -170l151 160l54 -45l-154 -164q203 -213 203 -522q0 -158 -56 -296t-153.5 -236t-234 -154t-291.5 -56q-280 0 -484 170l-147 -155l-53 45l149 160q-96 100 -148.5 233.5t-52.5 288.5zM176 717q0 -278 176 -467 l916 985q-183 156 -432 156q-139 0 -261.5 -51t-210 -140t-138 -214t-50.5 -269zM401 199q180 -156 435 -156q139 0 261.5 51t209.5 140t137.5 214t50.5 269q0 275 -176 467z" />
<glyph unicode="&#xd9;" horiz-adv-x="1454" d="M195 543v891h73v-891q0 -68 12 -132.5t44.5 -133t82 -119t132.5 -83t188 -32.5t188 32.5t132.5 83t82 119t44.5 133t12 132.5v891h74v-891q0 -77 -14 -151t-51.5 -151.5t-95.5 -134.5t-154 -94t-218 -37t-218 37t-153.5 94t-95 134.5t-51.5 151.5t-14 151zM500 1843h90 l237 -291h-86z" />
<glyph unicode="&#xda;" horiz-adv-x="1454" d="M195 543v891h73v-891q0 -68 12 -132.5t44.5 -133t82 -119t132.5 -83t188 -32.5t188 32.5t132.5 83t82 119t44.5 133t12 132.5v891h74v-891q0 -77 -14 -151t-51.5 -151.5t-95.5 -134.5t-154 -94t-218 -37t-218 37t-153.5 94t-95 134.5t-51.5 151.5t-14 151zM649 1552 l238 291h90l-242 -291h-86z" />
<glyph unicode="&#xdb;" horiz-adv-x="1454" d="M195 543v891h73v-891q0 -68 12 -132.5t44.5 -133t82 -119t132.5 -83t188 -32.5t188 32.5t132.5 83t82 119t44.5 133t12 132.5v891h74v-891q0 -77 -14 -151t-51.5 -151.5t-95.5 -134.5t-154 -94t-218 -37t-218 37t-153.5 94t-95 134.5t-51.5 151.5t-14 151zM457 1552 l229 297h82l229 -297h-88l-180 234h-4l-180 -234h-88z" />
<glyph unicode="&#xdc;" horiz-adv-x="1454" d="M195 543v891h73v-891q0 -68 12 -132.5t44.5 -133t82 -119t132.5 -83t188 -32.5t188 32.5t132.5 83t82 119t44.5 133t12 132.5v891h74v-891q0 -77 -14 -151t-51.5 -151.5t-95.5 -134.5t-154 -94t-218 -37t-218 37t-153.5 94t-95 134.5t-51.5 151.5t-14 151zM498 1638v174 h71v-174h-71zM887 1638v174h71v-174h-71z" />
<glyph unicode="&#xdd;" horiz-adv-x="1296" d="M70 1434h84l493 -754h4l494 754h82l-541 -824v-610h-74v610zM608 1552l238 291h90l-242 -291h-86z" />
<glyph unicode="&#xde;" horiz-adv-x="1142" d="M215 0v1434h74v-330h286q244 0 376 -91t132 -274q0 -181 -130 -274.5t-378 -93.5h-286v-371h-74zM289 436h286q211 0 322 77.5t111 225.5q0 149 -112 223t-321 74h-286v-600z" />
<glyph unicode="&#xdf;" horiz-adv-x="1167" d="M172 0v1159q0 174 103 264t276 90q98 0 174 -28t121 -75t67.5 -103.5t22.5 -118.5q0 -55 -21 -111t-56 -102.5t-70 -81.5t-72 -64q-45 -33 -45 -51q0 -7 4.5 -13.5t19 -15.5t23.5 -14t35 -18q39 -20 63.5 -33.5t65.5 -39t67 -47t58 -54t50 -65t31 -74.5t13 -87 q0 -163 -124 -244t-333 -81q-155 0 -248 31l15 63q102 -29 233 -29q175 0 279 65t104 195q0 52 -21 99t-49 79.5t-74.5 66.5t-78.5 52t-80 43q-36 18 -55.5 29t-41 26t-31 30t-9.5 32q0 25 20.5 48t67.5 59q71 55 128.5 138t57.5 169q0 106 -78.5 183t-232.5 77 q-140 0 -223.5 -73.5t-83.5 -215.5v-1159h-72z" />
<glyph unicode="&#xe0;" horiz-adv-x="1120" d="M76 258q0 61 22.5 109.5t60.5 83t97.5 60.5t123 41.5t148 25.5t162 14.5t174.5 5.5v80q0 147 -92 226t-233 79q-111 0 -204.5 -35t-150.5 -92l-47 47q65 65 171 105.5t231 40.5q112 0 200 -40t142.5 -125.5t54.5 -205.5v-479q0 -67 29 -100t71 -33l21 2l12 -66 q-2 0 -13 -1t-20 -1q-60 0 -101.5 36t-51.5 118h-4q-190 -179 -406 -179q-59 0 -113 8.5t-106.5 29.5t-91.5 52.5t-62.5 81t-23.5 111.5zM150 258q0 -59 28.5 -103t76.5 -68t102.5 -35t115.5 -11q205 0 391 182v309q-103 -1 -184 -6t-166.5 -15.5t-148 -30.5t-113 -49 t-76.5 -73t-26 -100zM336 1524h92l236 -291h-84z" />
<glyph unicode="&#xe1;" horiz-adv-x="1120" d="M76 258q0 61 22.5 109.5t60.5 83t97.5 60.5t123 41.5t148 25.5t162 14.5t174.5 5.5v80q0 147 -92 226t-233 79q-111 0 -204.5 -35t-150.5 -92l-47 47q65 65 171 105.5t231 40.5q112 0 200 -40t142.5 -125.5t54.5 -205.5v-479q0 -67 29 -100t71 -33l21 2l12 -66 q-2 0 -13 -1t-20 -1q-60 0 -101.5 36t-51.5 118h-4q-190 -179 -406 -179q-59 0 -113 8.5t-106.5 29.5t-91.5 52.5t-62.5 81t-23.5 111.5zM150 258q0 -59 28.5 -103t76.5 -68t102.5 -35t115.5 -11q205 0 391 182v309q-103 -1 -184 -6t-166.5 -15.5t-148 -30.5t-113 -49 t-76.5 -73t-26 -100zM449 1233l235 291h92l-244 -291h-83z" />
<glyph unicode="&#xe2;" horiz-adv-x="1120" d="M76 258q0 61 22.5 109.5t60.5 83t97.5 60.5t123 41.5t148 25.5t162 14.5t174.5 5.5v80q0 147 -92 226t-233 79q-111 0 -204.5 -35t-150.5 -92l-47 47q65 65 171 105.5t231 40.5q112 0 200 -40t142.5 -125.5t54.5 -205.5v-479q0 -67 29 -100t71 -33l21 2l12 -66 q-2 0 -13 -1t-20 -1q-60 0 -101.5 36t-51.5 118h-4q-190 -179 -406 -179q-59 0 -113 8.5t-106.5 29.5t-91.5 52.5t-62.5 81t-23.5 111.5zM150 258q0 -59 28.5 -103t76.5 -68t102.5 -35t115.5 -11q205 0 391 182v309q-103 -1 -184 -6t-166.5 -15.5t-148 -30.5t-113 -49 t-76.5 -73t-26 -100zM274 1233l228 297h82l229 -297h-86l-182 233h-4l-181 -233h-86z" />
<glyph unicode="&#xe3;" horiz-adv-x="1120" d="M76 258q0 61 22.5 109.5t60.5 83t97.5 60.5t123 41.5t148 25.5t162 14.5t174.5 5.5v80q0 147 -92 226t-233 79q-111 0 -204.5 -35t-150.5 -92l-47 47q65 65 171 105.5t231 40.5q112 0 200 -40t142.5 -125.5t54.5 -205.5v-479q0 -67 29 -100t71 -33l21 2l12 -66 q-2 0 -13 -1t-20 -1q-60 0 -101.5 36t-51.5 118h-4q-190 -179 -406 -179q-59 0 -113 8.5t-106.5 29.5t-91.5 52.5t-62.5 81t-23.5 111.5zM150 258q0 -59 28.5 -103t76.5 -68t102.5 -35t115.5 -11q205 0 391 182v309q-103 -1 -184 -6t-166.5 -15.5t-148 -30.5t-113 -49 t-76.5 -73t-26 -100zM207 1284q21 90 65 139.5t107 49.5q75 0 186 -76q73 -49 121 -49q72 0 105 114h69q-46 -182 -172 -182q-70 0 -156 57q-99 68 -153 68q-35 0 -62 -33t-41 -88h-69z" />
<glyph unicode="&#xe4;" horiz-adv-x="1120" d="M76 258q0 61 22.5 109.5t60.5 83t97.5 60.5t123 41.5t148 25.5t162 14.5t174.5 5.5v80q0 147 -92 226t-233 79q-111 0 -204.5 -35t-150.5 -92l-47 47q65 65 171 105.5t231 40.5q112 0 200 -40t142.5 -125.5t54.5 -205.5v-479q0 -67 29 -100t71 -33l21 2l12 -66 q-2 0 -13 -1t-20 -1q-60 0 -101.5 36t-51.5 118h-4q-190 -179 -406 -179q-59 0 -113 8.5t-106.5 29.5t-91.5 52.5t-62.5 81t-23.5 111.5zM150 258q0 -59 28.5 -103t76.5 -68t102.5 -35t115.5 -11q205 0 391 182v309q-103 -1 -184 -6t-166.5 -15.5t-148 -30.5t-113 -49 t-76.5 -73t-26 -100zM305 1260v174h74v-174h-74zM694 1260v174h74v-174h-74z" />
<glyph unicode="&#xe5;" horiz-adv-x="1120" d="M76 258q0 61 22.5 109.5t60.5 83t97.5 60.5t123 41.5t148 25.5t162 14.5t174.5 5.5v80q0 147 -92 226t-233 79q-111 0 -204.5 -35t-150.5 -92l-47 47q65 65 171 105.5t231 40.5q112 0 200 -40t142.5 -125.5t54.5 -205.5v-479q0 -67 29 -100t71 -33l21 2l12 -66 q-2 0 -13 -1t-20 -1q-60 0 -101.5 36t-51.5 118h-4q-190 -179 -406 -179q-59 0 -113 8.5t-106.5 29.5t-91.5 52.5t-62.5 81t-23.5 111.5zM150 258q0 -59 28.5 -103t76.5 -68t102.5 -35t115.5 -11q205 0 391 182v309q-103 -1 -184 -6t-166.5 -15.5t-148 -30.5t-113 -49 t-76.5 -73t-26 -100zM340 1401q0 81 57.5 136.5t137.5 55.5q79 0 136.5 -55.5t57.5 -136.5q0 -82 -57.5 -137.5t-136.5 -55.5q-81 0 -138 55.5t-57 137.5zM406 1401q0 -55 37 -91t92 -36q53 0 91 36t38 91q0 53 -38 90t-91 37q-54 0 -91.5 -36.5t-37.5 -90.5z" />
<glyph unicode="&#xe7;" horiz-adv-x="1089" d="M92 512q0 163 74 287t196 187t273 63q131 0 228 -47t155 -130l-55 -38q-47 70 -130.5 109.5t-197.5 39.5q-130 0 -235.5 -55.5t-169.5 -164t-64 -251.5q0 -210 133 -340.5t348 -130.5q60 0 116 15.5t92.5 37.5t64.5 43.5t40 36.5l13 16l53 -38q-12 -15 -29 -31.5 t-53.5 -44.5t-77.5 -49t-102 -36.5t-125 -15.5l-107 -141q1 0 2.5 -1t2.5 -1q44 21 98 21q67 0 119.5 -32.5t52.5 -99.5q0 -42 -19 -73.5t-51.5 -48.5t-69.5 -25t-79 -8q-56 0 -110.5 13t-84.5 32l35 55q23 -14 68 -24.5t92 -10.5q58 0 101.5 22.5t43.5 70.5 q0 38 -35.5 57.5t-83.5 19.5q-76 0 -125 -34l-40 43l114 172q-214 25 -342.5 168.5t-128.5 361.5z" />
<glyph unicode="&#xe8;" horiz-adv-x="1181" d="M92 512q0 163 74 287t196 187t273 63q111 0 200 -34.5t144.5 -94.5t85 -138t29.5 -168l-7 -96h-921q4 -214 146 -345.5t358 -131.5q62 0 121.5 13t100.5 32t73 37.5t47 31.5l16 13l45 -49q-6 -6 -18 -15.5t-52.5 -34.5t-84.5 -44t-111.5 -34.5t-136.5 -15.5 q-251 0 -414.5 150.5t-163.5 386.5zM172 584h846q8 108 -31.5 197t-131 145.5t-220.5 56.5q-119 0 -218.5 -47t-165 -138.5t-79.5 -213.5zM362 1524h91l237 -291h-86z" />
<glyph unicode="&#xe9;" horiz-adv-x="1181" d="M92 512q0 163 74 287t196 187t273 63q111 0 200 -34.5t144.5 -94.5t85 -138t29.5 -168l-7 -96h-921q4 -214 146 -345.5t358 -131.5q62 0 121.5 13t100.5 32t73 37.5t47 31.5l16 13l45 -49q-6 -6 -18 -15.5t-52.5 -34.5t-84.5 -44t-111.5 -34.5t-136.5 -15.5 q-251 0 -414.5 150.5t-163.5 386.5zM172 584h846q8 108 -31.5 197t-131 145.5t-220.5 56.5q-119 0 -218.5 -47t-165 -138.5t-79.5 -213.5zM543 1233l235 291h92l-243 -291h-84z" />
<glyph unicode="&#xea;" horiz-adv-x="1181" d="M92 512q0 163 74 287t196 187t273 63q111 0 200 -34.5t144.5 -94.5t85 -138t29.5 -168l-7 -96h-921q4 -214 146 -345.5t358 -131.5q62 0 121.5 13t100.5 32t73 37.5t47 31.5l16 13l45 -49q-6 -6 -18 -15.5t-52.5 -34.5t-84.5 -44t-111.5 -34.5t-136.5 -15.5 q-251 0 -414.5 150.5t-163.5 386.5zM172 584h846q8 108 -31.5 197t-131 145.5t-220.5 56.5q-119 0 -218.5 -47t-165 -138.5t-79.5 -213.5zM350 1233l230 297h82l229 -297h-88l-180 233h-5l-180 -233h-88z" />
<glyph unicode="&#xeb;" horiz-adv-x="1181" d="M92 512q0 163 74 287t196 187t273 63q111 0 200 -34.5t144.5 -94.5t85 -138t29.5 -168l-7 -96h-921q4 -214 146 -345.5t358 -131.5q62 0 121.5 13t100.5 32t73 37.5t47 31.5l16 13l45 -49q-6 -6 -18 -15.5t-52.5 -34.5t-84.5 -44t-111.5 -34.5t-136.5 -15.5 q-251 0 -414.5 150.5t-163.5 386.5zM172 584h846q8 108 -31.5 197t-131 145.5t-220.5 56.5q-119 0 -218.5 -47t-165 -138.5t-79.5 -213.5zM389 1260v174h74v-174h-74zM778 1260v174h74v-174h-74z" />
<glyph unicode="&#xec;" horiz-adv-x="430" d="M-72 1524h90l238 -291h-86zM178 0v1024h72v-1024h-72z" />
<glyph unicode="&#xed;" horiz-adv-x="428" d="M172 1233l236 291h92l-244 -291h-84zM178 0v1024h72v-1024h-72z" />
<glyph unicode="&#xee;" horiz-adv-x="430" d="M-51 1233l227 297h82l229 -297h-86l-180 233h-4l-182 -233h-86zM178 0v1024h72v-1024h-72z" />
<glyph unicode="&#xef;" horiz-adv-x="430" d="M-14 1260v174h73v-174h-73zM178 0v1024h72v-1024h-72zM375 1260v174h74v-174h-74z" />
<glyph unicode="&#xf0;" horiz-adv-x="1251" d="M92 500q0 226 150.5 375t380.5 149q114 0 213 -46t155 -124l4 2q-100 200 -413 432l-289 -145l-31 55l260 131q-125 85 -217 141l33 56q147 -91 246 -162l270 139l33 -57l-246 -123q113 -85 200 -171.5t160.5 -188.5t113 -220t40.5 -243q0 -227 -149.5 -376t-382.5 -149 q-230 0 -380.5 149.5t-150.5 375.5zM166 500q0 -197 130 -328t327 -131q201 0 329.5 130.5t128.5 328.5q0 200 -129.5 329t-328.5 129q-198 0 -327.5 -130.5t-129.5 -327.5z" />
<glyph unicode="&#xf1;" horiz-adv-x="1249" d="M172 0v1024h72v-158h4q56 78 160 130.5t217 52.5q229 0 348 -113t119 -309v-627h-72v627q0 166 -100 261t-295 95q-130 0 -233 -62.5t-148 -156.5v-764h-72zM309 1284q21 89 64.5 139t105.5 50q74 0 189 -76q73 -49 120 -49q36 0 62.5 30t40.5 84h72q-46 -182 -172 -182 q-70 0 -156 57q-35 23 -54 34.5t-47.5 22.5t-52.5 11q-35 0 -61.5 -33t-40.5 -88h-70z" />
<glyph unicode="&#xf2;" horiz-adv-x="1271" d="M92 512q0 231 154 384t389 153q157 0 282 -70t194 -192.5t69 -274.5t-69 -274.5t-194 -192.5t-282 -70q-235 0 -389 153t-154 384zM166 512q0 -203 133 -337t336 -134q206 0 338.5 133.5t132.5 337.5q0 202 -132.5 336.5t-338.5 134.5q-203 0 -336 -134.5t-133 -336.5z M369 1524h92l235 -291h-84z" />
<glyph unicode="&#xf3;" horiz-adv-x="1271" d="M92 512q0 231 154 384t389 153q157 0 282 -70t194 -192.5t69 -274.5t-69 -274.5t-194 -192.5t-282 -70q-235 0 -389 153t-154 384zM166 512q0 -203 133 -337t336 -134q206 0 338.5 133.5t132.5 337.5q0 202 -132.5 336.5t-338.5 134.5q-203 0 -336 -134.5t-133 -336.5z M573 1233l236 291h92l-244 -291h-84z" />
<glyph unicode="&#xf4;" horiz-adv-x="1271" d="M92 512q0 231 154 384t389 153q157 0 282 -70t194 -192.5t69 -274.5t-69 -274.5t-194 -192.5t-282 -70q-235 0 -389 153t-154 384zM166 512q0 -203 133 -337t336 -134q206 0 338.5 133.5t132.5 337.5q0 202 -132.5 336.5t-338.5 134.5q-203 0 -336 -134.5t-133 -336.5z M365 1233l229 297h82l229 -297h-88l-180 233h-4l-180 -233h-88z" />
<glyph unicode="&#xf5;" horiz-adv-x="1271" d="M92 512q0 231 154 384t389 153q157 0 282 -70t194 -192.5t69 -274.5t-69 -274.5t-194 -192.5t-282 -70q-235 0 -389 153t-154 384zM166 512q0 -203 133 -337t336 -134q206 0 338.5 133.5t132.5 337.5q0 202 -132.5 336.5t-338.5 134.5q-203 0 -336 -134.5t-133 -336.5z M309 1284q21 90 65 139.5t107 49.5q76 0 187 -76q73 -49 120 -49q72 0 105 114h70q-46 -182 -172 -182q-70 0 -156 57q-99 68 -154 68q-35 0 -61.5 -33t-40.5 -88h-70z" />
<glyph unicode="&#xf6;" horiz-adv-x="1271" d="M92 512q0 231 154 384t389 153q157 0 282 -70t194 -192.5t69 -274.5t-69 -274.5t-194 -192.5t-282 -70q-235 0 -389 153t-154 384zM166 512q0 -203 133 -337t336 -134q206 0 338.5 133.5t132.5 337.5q0 202 -132.5 336.5t-338.5 134.5q-203 0 -336 -134.5t-133 -336.5z M403 1260v174h74v-174h-74zM793 1260v174h73v-174h-73z" />
<glyph unicode="&#xf7;" horiz-adv-x="1431" d="M158 631v65h1116v-65h-1116zM680 190v175h74v-175h-74zM680 961v174h74v-174h-74z" />
<glyph unicode="&#xf8;" horiz-adv-x="1257" d="M78 -6l147 151q-139 148 -139 367q0 231 154 384t389 153q210 0 358 -123l141 145l52 -45l-144 -147q138 -151 138 -367q0 -152 -69 -274.5t-194 -192.5t-282 -70q-210 0 -355 123l-145 -149zM160 512q0 -188 114 -315l662 677q-128 109 -307 109q-203 0 -336 -134.5 t-133 -336.5zM324 147q122 -106 305 -106q206 0 338.5 133.5t132.5 337.5q0 184 -115 315z" />
<glyph unicode="&#xf9;" horiz-adv-x="1247" d="M156 397v627h71v-627q0 -165 101 -260.5t295 -95.5q130 0 234 63t147 156v764h71v-1024h-71v158h-5q-56 -78 -159.5 -130.5t-216.5 -52.5q-229 0 -348 113t-119 309zM373 1524h90l235 -291h-84z" />
<glyph unicode="&#xfa;" horiz-adv-x="1247" d="M156 397v627h71v-627q0 -165 101 -260.5t295 -95.5q130 0 234 63t147 156v764h71v-1024h-71v158h-5q-56 -78 -159.5 -130.5t-216.5 -52.5q-229 0 -348 113t-119 309zM532 1233l238 291h90l-242 -291h-86z" />
<glyph unicode="&#xfb;" horiz-adv-x="1247" d="M156 397v627h71v-627q0 -165 101 -260.5t295 -95.5q130 0 234 63t147 156v764h71v-1024h-71v158h-5q-56 -78 -159.5 -130.5t-216.5 -52.5q-229 0 -348 113t-119 309zM346 1233l227 297h84l228 -297h-86l-181 233h-4l-182 -233h-86z" />
<glyph unicode="&#xfc;" horiz-adv-x="1247" d="M156 397v627h71v-627q0 -165 101 -260.5t295 -95.5q130 0 234 63t147 156v764h71v-1024h-71v158h-5q-56 -78 -159.5 -130.5t-216.5 -52.5q-229 0 -348 113t-119 309zM385 1260v174h74v-174h-74zM774 1260v174h74v-174h-74z" />
<glyph unicode="&#xfd;" horiz-adv-x="1105" d="M49 1024h78l420 -934h4l422 934h80l-551 -1208q-39 -84 -75.5 -131.5t-96 -75t-146.5 -27.5q-67 0 -129 12l15 64q56 -12 114 -12q64 0 110 23t77 63t65 110l74 162zM496 1233l235 291h90l-241 -291h-84z" />
<glyph unicode="&#xfe;" horiz-adv-x="1218" d="M172 -410v1905h72v-610h4q138 164 354 164q143 0 263 -69.5t190.5 -193.5t70.5 -274t-70.5 -274t-190.5 -193.5t-263 -69.5q-213 0 -354 164h-4v-549h-72zM244 236q59 -92 153 -143.5t205 -51.5q189 0 321 135t132 336q0 131 -61 239.5t-164.5 170t-227.5 61.5 q-111 0 -204.5 -52t-153.5 -147v-548z" />
<glyph unicode="&#xff;" horiz-adv-x="1105" d="M49 1024h78l420 -934h4l422 934h80l-551 -1208q-39 -84 -75.5 -131.5t-96 -75t-146.5 -27.5q-67 0 -129 12l15 64q56 -12 114 -12q64 0 110 23t77 63t65 110l74 162zM334 1260v174h74v-174h-74zM723 1260v174h74v-174h-74z" />
<glyph unicode="&#x178;" horiz-adv-x="1296" d="M70 1434h84l493 -754h4l494 754h82l-541 -824v-610h-74v610zM418 1638v174h74v-174h-74zM807 1638v174h74v-174h-74z" />
<glyph unicode="&#x2c6;" horiz-adv-x="743" d="M102 1233l228 297h82l229 -297h-86l-180 233h-4l-183 -233h-86z" />
<glyph unicode="&#x2dc;" horiz-adv-x="858" d="M102 1284q21 89 64.5 139t105.5 50q74 0 189 -76q73 -49 121 -49q36 0 62 30t40 84h72q-46 -182 -172 -182q-70 0 -156 57q-99 68 -154 68q-35 0 -61.5 -33t-40.5 -88h-70z" />
<glyph unicode="&#x2000;" horiz-adv-x="958" />
<glyph unicode="&#x2001;" horiz-adv-x="1917" />
<glyph unicode="&#x2002;" horiz-adv-x="958" />
<glyph unicode="&#x2003;" horiz-adv-x="1917" />
<glyph unicode="&#x2004;" horiz-adv-x="639" />
<glyph unicode="&#x2005;" horiz-adv-x="479" />
<glyph unicode="&#x2006;" horiz-adv-x="319" />
<glyph unicode="&#x2007;" horiz-adv-x="319" />
<glyph unicode="&#x2008;" horiz-adv-x="239" />
<glyph unicode="&#x2009;" horiz-adv-x="383" />
<glyph unicode="&#x200a;" horiz-adv-x="106" />
<glyph unicode="&#x2010;" horiz-adv-x="720" d="M115 500v65h491v-65h-491z" />
<glyph unicode="&#x2011;" horiz-adv-x="720" d="M115 500v65h491v-65h-491z" />
<glyph unicode="&#x2012;" horiz-adv-x="720" d="M115 500v65h491v-65h-491z" />
<glyph unicode="&#x2013;" horiz-adv-x="972" d="M115 500v65h743v-65h-743z" />
<glyph unicode="&#x2014;" horiz-adv-x="1411" d="M115 500v65h1181v-65h-1181z" />
<glyph unicode="&#x2018;" horiz-adv-x="454" d="M100 1434h76l146 -478h-72z" />
<glyph unicode="&#x2019;" horiz-adv-x="454" d="M133 956l148 478h73l-149 -478h-72z" />
<glyph unicode="&#x201a;" horiz-adv-x="362" d="M27 -285l147 478h74l-150 -478h-71z" />
<glyph unicode="&#x201c;" horiz-adv-x="788" d="M100 1434h76l146 -478h-72zM434 1434h76l145 -478h-71z" />
<glyph unicode="&#x201d;" horiz-adv-x="788" d="M133 956l148 478h73l-149 -478h-72zM467 956l147 478h74l-149 -478h-72z" />
<glyph unicode="&#x201e;" horiz-adv-x="696" d="M27 -285l147 478h74l-150 -478h-71zM360 -285l148 478h74l-150 -478h-72z" />
<glyph unicode="&#x2022;" horiz-adv-x="1011" d="M162 727q0 145 95 243.5t249 98.5t249 -98.5t95 -243.5q0 -147 -95 -246.5t-249 -99.5t-249 99.5t-95 246.5z" />
<glyph unicode="&#x202f;" horiz-adv-x="383" />
<glyph unicode="&#x2039;" horiz-adv-x="610" d="M119 524l276 422h84l-278 -422l276 -420h-84z" />
<glyph unicode="&#x203a;" horiz-adv-x="610" d="M131 946h84l277 -422l-275 -420h-84l277 420z" />
<glyph unicode="&#x205f;" horiz-adv-x="479" />
<glyph unicode="&#x20ac;" horiz-adv-x="1566" d="M90 510v65h127q-12 67 -12 142t12 145h-123v66h137q63 238 256.5 384t452.5 146q283 0 483 -172l-26 -69q-187 174 -457 174q-227 0 -397 -127t-232 -336h979l-24 -66h-971q-14 -66 -14 -145q0 -75 12 -142h868l-24 -65h-828q62 -211 233 -339t398 -128q144 0 269 53 t216 148l50 -47q-100 -105 -238.5 -163.5t-296.5 -58.5q-260 0 -452.5 147t-256.5 388h-141z" />
<glyph unicode="&#x2122;" horiz-adv-x="1826" d="M80 1368v66h643v-66h-285v-768h-73v768h-285zM870 600v834h74l311 -736h5l305 736h73v-834h-73v645h-4l-265 -645h-79l-269 645h-4v-645h-74z" />
<glyph unicode="&#x25fc;" horiz-adv-x="1024" d="M0 0v1024h1024v-1024h-1024z" />
</font>
</defs>
</svg>
