<?xml version="1.0" standalone="no"?>
<!DOCTYPE svg PUBLIC "-//W3C//DTD SVG 1.1//EN" "http://www.w3.org/Graphics/SVG/1.1/DTD/svg11.dtd" >
<svg xmlns="http://www.w3.org/2000/svg" xmlns:xlink="http://www.w3.org/1999/xlink" version="1.1">
<metadata></metadata>
<defs>
<font id="gentleman_400light" horiz-adv-x="1112" >
<font-face units-per-em="2048" ascent="1536" descent="-512" />
<missing-glyph horiz-adv-x="569" />
<glyph unicode="AE" horiz-adv-x="1998" d="M-2 0l934 1434h952v-95h-762v-546h713v-95h-713v-604h787v-94h-893v401h-633l-262 -401h-123zM444 496h572v843h-23z" />
<glyph unicode="ae" horiz-adv-x="1861" d="M74 256q0 71 26.5 127t79 93.5t116.5 63t152.5 40t173.5 20.5t191 8v66q0 134 -80.5 207t-206.5 73q-103 0 -188 -32.5t-137 -85.5l-68 67q65 65 168 105.5t225 40.5q145 0 241 -70t122 -201h4q58 129 173.5 200t266.5 71q142 0 243.5 -60t149.5 -156t48 -217l-9 -108 h-845q6 -196 131.5 -317t314.5 -121q56 0 109.5 12t90.5 29.5t65.5 35t42.5 29.5l14 12l65 -69q-6 -6 -17.5 -15.5t-50.5 -34.5t-81 -44t-107 -34.5t-131 -15.5q-166 0 -290 74.5t-185 206.5h-4q-13 -77 -51 -127q-60 -80 -162 -117t-211 -37q-73 0 -138.5 15t-123.5 46 t-92.5 87.5t-34.5 132.5zM180 256q0 -50 25.5 -87.5t67.5 -58t90 -30.5t100 -10q57 0 114.5 14t112 43t89 82.5t34.5 124.5v182q-91 -2 -164 -7t-148.5 -15.5t-130.5 -30t-99.5 -47t-67.5 -68t-23 -92.5zM928 600h737q4 95 -31 174t-113.5 129.5t-187.5 50.5 q-154 0 -266.5 -95.5t-138.5 -258.5z" />
<glyph unicode="OE" horiz-adv-x="1964" d="M102 717q0 205 92 369t254.5 256t364.5 92h1036v-95h-762v-546h715v-95h-715v-604h787v-94h-1061q-202 0 -364.5 92t-254.5 256t-92 369zM211 717q0 -176 78.5 -319t216 -223.5t307.5 -80.5h168v1245h-168q-170 0 -307.5 -80.5t-216 -223t-78.5 -318.5z" />
<glyph unicode="oe" horiz-adv-x="2093" d="M90 512q0 231 150 384t381 153q169 0 295.5 -86.5t179.5 -231.5h4q52 150 177 234t290 84q107 0 191.5 -34.5t137.5 -94.5t81 -138t28 -168l-6 -108h-846q5 -192 129.5 -314t316.5 -122q56 0 109.5 12t90.5 29.5t65.5 35t42.5 29.5l14 12l66 -69q-6 -6 -17.5 -15.5 t-50.5 -34.5t-81.5 -44t-107.5 -34.5t-131 -15.5q-177 0 -309 87t-186 237h-4q-54 -148 -180.5 -236t-298.5 -88q-231 0 -381 153t-150 384zM197 512q0 -191 120 -316.5t304 -125.5q187 0 306.5 125.5t119.5 316.5t-119.5 316.5t-306.5 125.5q-184 0 -304 -125.5 t-120 -316.5zM1161 596h737q0 50 -8 86q-20 121 -102.5 196.5t-220.5 75.5q-156 0 -269 -96.5t-137 -261.5z" />
<glyph unicode="&#x2e;&#x2e;&#x2e;" horiz-adv-x="1724" d="M135 0v174h107v-174h-107zM809 0v174h106v-174h-106zM1483 0v174h106v-174h-106z" />
<glyph horiz-adv-x="0" />
<glyph horiz-adv-x="0" />
<glyph horiz-adv-x="682" />
<glyph unicode="&#xd;" horiz-adv-x="512" />
<glyph unicode=" "  horiz-adv-x="569" />
<glyph unicode="&#x09;" horiz-adv-x="569" />
<glyph unicode="&#xa0;" horiz-adv-x="569" />
<glyph unicode="!" horiz-adv-x="557" d="M225 0v174h107v-174h-107zM225 389v1045h107v-1045h-107z" />
<glyph unicode="&#x22;" horiz-adv-x="714" d="M158 958v476h106v-476h-106zM451 958v476h106v-476h-106z" />
<glyph unicode="#" horiz-adv-x="1171" d="M94 449v94h228l49 354h-230v94h242l61 443h109l-61 -443h284l62 443h108l-61 -443h192v-94h-205l-49 -354h207v-94h-221l-59 -449h-109l59 449h-284l-60 -449h-108l59 449h-213zM430 543h285l49 354h-285z" />
<glyph unicode="$" horiz-adv-x="1069" d="M88 160l74 65q5 -6 15.5 -16.5t47 -36.5t77.5 -45.5t106.5 -36t134.5 -16.5q146 0 234.5 74.5t88.5 181.5q0 30 -6.5 58t-15 50t-26.5 44.5t-32 38.5t-41.5 35.5t-44 30.5t-50 29t-50 26t-53.5 26q-22 11 -33 16q-157 76 -209 109q-146 93 -178 220q-10 42 -10 89 q0 136 105.5 234.5t275.5 117.5v174h106v-172q62 -4 119.5 -19.5t96 -35t68 -38t42.5 -31.5l14 -13l-70 -68q-4 4 -12.5 11.5t-37.5 26.5t-62 33t-87 26t-112 12q-148 0 -243 -75t-95 -183q0 -61 23 -109t70.5 -85t92 -61t115.5 -58q25 -11 37 -17q158 -77 194 -98 q142 -83 190 -190q30 -68 30 -154q0 -133 -102 -233t-271 -117v-173h-106v170q-74 4 -144 24.5t-116 47t-81.5 51.5t-52.5 42z" />
<glyph unicode="%" horiz-adv-x="1654" d="M78 1104q0 142 98.5 240t241.5 98t241.5 -98t98.5 -240t-98.5 -240t-241.5 -98t-241.5 98t-98.5 240zM186 1104q0 -101 67.5 -170.5t164.5 -69.5t164 69.5t67 170.5t-67 170t-164 69t-164.5 -69t-67.5 -170zM307 -37l914 1507h120l-913 -1507h-121zM897 330 q0 142 98.5 240t241.5 98t241.5 -98t98.5 -240t-98.5 -240t-241.5 -98t-241.5 98t-98.5 240zM1006 330q0 -101 67 -170.5t164 -69.5t164 69.5t67 170.5t-67 170t-164 69t-164 -69t-67 -170z" />
<glyph unicode="&#x26;" horiz-adv-x="1433" d="M172 342q0 81 23.5 148.5t72 123.5t105.5 100.5t141 94.5q-80 93 -128 177.5t-48 168.5q0 141 88.5 222t220.5 81q128 0 214.5 -77t86.5 -210q0 -208 -284 -385l325 -383l225 367h119l-276 -451l268 -319h-133l-193 227q-56 -84 -110.5 -136t-133 -84t-177.5 -32 q-174 0 -290 98t-116 269zM281 342q0 -125 85 -196.5t212 -71.5q117 0 198 59t156 178l-354 418q-76 -44 -126 -80t-91.5 -82t-60.5 -101t-19 -124zM446 1155q0 -68 41.5 -138.5t112.5 -152.5q240 155 240 307q0 87 -55.5 138t-137.5 51q-83 0 -141.5 -55t-59.5 -150z" />
<glyph unicode="'" horiz-adv-x="421" d="M158 958v476h106v-476h-106z" />
<glyph unicode="(" horiz-adv-x="552" d="M102 584q0 251 82 487.5t219 407.5l76 -58q-122 -162 -196 -382t-74 -455t74 -455.5t196 -382.5l-76 -57q-137 171 -219 407.5t-82 487.5z" />
<glyph unicode=")" horiz-adv-x="552" d="M74 -254q123 161 196.5 381.5t73.5 456.5t-73.5 456t-196.5 381l78 58q136 -171 217.5 -407.5t81.5 -487.5t-81.5 -487.5t-217.5 -407.5z" />
<glyph unicode="*" horiz-adv-x="978" d="M109 1139l32 90l293 -99l-2 304h107l-2 -306l301 95l28 -90l-301 -89l199 -266l-86 -57l-193 266l-190 -266l-86 57l201 266z" />
<glyph unicode="+" horiz-adv-x="1292" d="M88 616v95h506v510h106v-510h504v-95h-504v-512h-106v512h-506z" />
<glyph unicode="," horiz-adv-x="430" d="M39 -287l145 482h111l-152 -482h-104z" />
<glyph unicode="-" horiz-adv-x="716" d="M113 485v95h491v-95h-491z" />
<glyph unicode="." horiz-adv-x="376" d="M135 0v174h107v-174h-107z" />
<glyph unicode="/" horiz-adv-x="874" d="M72 -18l620 1484h113l-621 -1484h-112z" />
<glyph unicode="0" horiz-adv-x="1181" d="M129 715q0 116 14 219t47.5 200.5t85 168t132.5 113t184 42.5q102 0 182.5 -42.5t132 -113t86 -168t48.5 -201t14 -218.5t-14 -218.5t-48.5 -200.5t-86 -167t-132 -112t-182.5 -42q-86 0 -157 29t-120.5 81.5t-86.5 121.5t-58 153.5t-31 172t-10 182.5zM238 715 q0 -128 18 -236.5t56.5 -203t110 -149t169.5 -54.5q96 0 167.5 54.5t110.5 148.5t57.5 203.5t18.5 236.5q0 100 -11 190t-37 175t-65.5 146.5t-101 98.5t-139.5 37q-79 0 -141 -37t-101.5 -98.5t-65 -146.5t-36 -174.5t-10.5 -190.5z" />
<glyph unicode="1" horiz-adv-x="659" d="M39 1221l260 213h131v-1434h-104v1331h-4l-218 -180z" />
<glyph unicode="2" d="M109 0v113q0 97 42.5 183.5t110.5 152.5t150.5 127.5t165 119t150.5 115t110.5 127.5t42.5 145q0 113 -90 196t-238 83q-68 0 -129 -21.5t-99.5 -52t-67 -60.5t-40.5 -52l-12 -21q-50 28 -86 45q3 5 8 14.5t25 36.5t42.5 51t60.5 54t79.5 51.5t99 36t119.5 14.5 q99 0 183 -32t138.5 -85t84.5 -120t30 -138q0 -69 -26.5 -133t-71 -116t-102.5 -101t-122 -94t-128 -89.5t-122 -93t-102.5 -99.5t-71 -113.5t-26.5 -130.5v-19h795v-94h-903z" />
<glyph unicode="3" horiz-adv-x="1138" d="M86 256l92 31q3 -9 9.5 -23.5t33.5 -52t62.5 -65.5t99.5 -51.5t141 -22.5q175 0 273 80t98 239q0 74 -33 133t-84.5 93.5t-107 52.5t-107.5 20h-96v96h100q50 2 100 21.5t92.5 54.5t69.5 90.5t27 122.5q0 118 -82.5 203t-236.5 84q-68 0 -125 -17t-89.5 -41t-55 -48 t-30.5 -41l-8 -17l-90 35q4 9 11.5 24t39 54t72 68.5t113 54t157.5 24.5q107 0 192 -33t136.5 -88t78 -122t26.5 -140q0 -129 -80.5 -218.5t-190.5 -113.5v-4q59 -12 113 -41t98.5 -72t71.5 -104t27 -131q0 -206 -126.5 -310t-349.5 -106q-71 0 -134 15.5t-106.5 40.5 t-79.5 54.5t-58 59.5t-37 55t-21 40z" />
<glyph unicode="4" horiz-adv-x="1148" d="M57 369v131l662 934h125v-973h233v-92h-233v-369h-105v369h-682zM158 461h581v821h-4l-577 -817v-4z" />
<glyph unicode="5" d="M86 236l86 43q47 -96 137 -151.5t211 -55.5q113 0 204 56.5t138 142.5t47 180q0 160 -104 263t-275 103q-133 0 -268 -94l-72 37l13 674h725v-95h-621l-10 -483q1 0 2 -1t2 -1q101 59 229 59q217 0 352.5 -130t135.5 -332q0 -88 -36.5 -173t-100 -152.5t-158.5 -109 t-203 -41.5q-150 0 -262 69.5t-172 191.5z" />
<glyph unicode="6" horiz-adv-x="1177" d="M115 649q0 92 16.5 184.5t48.5 184t84.5 170.5t120 139.5t160.5 95.5t200 35q70 0 136 -15t97 -29l30 -15l-47 -84q-10 5 -27.5 13t-74 21t-114.5 13q-98 0 -181 -37.5t-140.5 -100t-100.5 -146.5t-66.5 -173t-31.5 -184h4q70 88 178.5 142.5t229.5 54.5 q195 0 320.5 -130.5t125.5 -332.5q0 -217 -128.5 -348.5t-321.5 -131.5q-153 0 -271.5 87t-182.5 240.5t-64 346.5zM225 569q19 -221 129.5 -359t278.5 -138q147 0 244.5 104.5t97.5 278.5q0 160 -95 263t-243 103q-129 0 -243 -73.5t-169 -178.5z" />
<glyph unicode="7" horiz-adv-x="935" d="M51 1339v95h850v-127l-602 -1307h-115l617 1335v4h-750z" />
<glyph unicode="8" horiz-adv-x="1142" d="M139 354q0 81 23 144.5t68 108.5t93 74.5t117 59.5v4q-59 29 -100 57t-79 68.5t-57.5 96t-19.5 125.5q0 165 116.5 265.5t283.5 100.5q174 0 279.5 -93t105.5 -273q0 -59 -14 -108.5t-36.5 -85.5t-58 -67.5t-71.5 -52.5t-84 -43v-4q70 -32 116.5 -61t92.5 -73.5t69 -105 t23 -137.5q0 -89 -36.5 -162.5t-96.5 -120t-134.5 -71.5t-154.5 -25q-67 0 -129.5 13t-120.5 43t-101 73t-68.5 107.5t-25.5 142.5zM248 354q0 -73 29 -129t78 -88.5t107 -48.5t122 -16q81 0 151 31t117 97t47 154q0 32 -6.5 60.5t-15.5 51.5t-28 45.5t-34 38t-43 33.5 t-46.5 29t-53.5 26.5t-53.5 23.5t-57.5 24q-59 -22 -96 -38.5t-83 -46t-72 -61t-44 -79.5t-18 -107zM293 1092q0 -52 16.5 -95.5t41 -73t66 -56.5t77 -43.5t88.5 -37.5q52 21 86.5 37.5t74 43.5t63 56.5t39 73t15.5 95.5q0 132 -75 201t-201 69q-123 0 -207 -73.5 t-84 -196.5z" />
<glyph unicode="9" horiz-adv-x="1175" d="M92 979q0 217 129 348t322 131q153 0 271.5 -87t182.5 -240.5t64 -346.5q0 -111 -22.5 -222t-73 -217.5t-122 -188t-178.5 -131.5t-235 -50q-70 0 -135.5 15t-96.5 30l-30 15l47 84q9 -5 27 -13t74 -21t114 -13q98 0 181 37.5t140.5 100t100.5 146.5t66.5 173t31.5 184 h-4q-70 -88 -178 -142.5t-229 -54.5q-195 0 -321 130.5t-126 332.5zM201 979q0 -160 95 -263.5t243 -103.5q129 0 242.5 73.5t168.5 178.5q-19 222 -129 360t-278 138q-147 0 -244.5 -104.5t-97.5 -278.5z" />
<glyph unicode=":" horiz-adv-x="401" d="M147 0v174h107v-174h-107zM147 850v174h107v-174h-107z" />
<glyph unicode=";" horiz-adv-x="530" d="M98 -287h105l151 482h-110zM217 850v174h107v-174h-107z" />
<glyph unicode="&#x3c;" horiz-adv-x="1351" d="M80 610v107l1116 506v-107l-999 -450v-4l999 -453v-107z" />
<glyph unicode="=" horiz-adv-x="1390" d="M137 453v94h1116v-94h-1116zM137 780v94h1116v-94h-1116z" />
<glyph unicode="&#x3e;" horiz-adv-x="1351" d="M156 102v107l999 453v4l-999 450v107l1116 -506v-107z" />
<glyph unicode="?" horiz-adv-x="976" d="M80 1122q31 157 139 246.5t268 89.5q169 0 280.5 -93.5t111.5 -256.5q0 -49 -11 -92.5t-26.5 -73.5t-43.5 -62t-50 -51.5t-58 -48.5q-95 -74 -131.5 -134t-36.5 -163v-94h-106v94q0 132 44.5 206t162.5 167q34 27 56.5 48.5t45.5 52.5t34 68.5t11 82.5q0 116 -81 184 t-202 68t-203.5 -68.5t-107.5 -187.5zM416 0v174h106v-174h-106z" />
<glyph unicode="@" horiz-adv-x="1671" d="M111 711q0 157 54 294.5t150.5 237.5t236.5 157.5t304 57.5q125 0 229.5 -21t193.5 -69.5t150 -122t95.5 -182.5t34.5 -248q0 -83 -25.5 -160.5t-66.5 -134.5t-91.5 -100.5t-103 -65.5t-98.5 -22q-76 0 -119 35t-54 82h-4q-36 -49 -96 -83t-137 -34q-133 0 -213 91.5 t-80 235.5q0 114 47.5 215.5t138.5 166.5t205 65q62 0 109.5 -35.5t72.5 -85.5h5l16 90h106l-92 -555q-5 -38 21 -64t74 -26q46 0 95 28.5t89 77t66 122.5t26 157q0 146 -44 253.5t-125.5 170t-186.5 92t-238 29.5q-187 0 -333 -85.5t-225 -233t-79 -330.5q0 -291 180 -464 t473 -173q349 0 564 209l67 -70q-122 -117 -275.5 -177.5t-355.5 -60.5q-225 0 -397.5 89.5t-268 257t-95.5 389.5zM580 659q0 -99 49 -164t123 -65q77 0 134.5 37.5t88.5 85.5q9 53 27.5 160.5t27.5 160.5q-19 50 -63 92t-105 42q-81 0 -146.5 -50.5t-100.5 -130 t-35 -168.5z" />
<glyph unicode="A" horiz-adv-x="1388" d="M18 0l621 1434h113l614 -1434h-113l-168 397h-784l-170 -397h-113zM342 492h700l-344 813h-4z" />
<glyph unicode="B" horiz-adv-x="1273" d="M207 0v1434h368q106 0 194.5 -19t158.5 -58.5t109.5 -107t39.5 -157.5q0 -127 -74.5 -212.5t-193.5 -107.5v-4q174 -28 271.5 -130.5t97.5 -258.5q0 -99 -46 -173.5t-127.5 -118.5t-182.5 -65.5t-220 -21.5h-395zM313 94h289q97 0 179 16.5t147.5 49.5t103 89t37.5 130 q0 161 -114 246.5t-316 85.5h-326v-617zM313 805h322q60 0 116 16t106.5 48t81 90t30.5 133q0 65 -31 113.5t-86 77t-124.5 42.5t-152.5 14h-262v-534z" />
<glyph unicode="C" horiz-adv-x="1419" d="M100 717q0 211 96 380.5t264 265t376 95.5q156 0 292.5 -60.5t208.5 -162.5l-80 -57q-60 84 -174 133t-247 49q-132 0 -248 -48.5t-199.5 -133.5t-131.5 -204.5t-48 -256.5q0 -278 178 -460.5t449 -182.5q153 0 268 61.5t178 157.5l82 -55q-77 -115 -213 -189t-315 -74 q-157 0 -294 56t-234 154t-152.5 236t-55.5 296z" />
<glyph unicode="D" horiz-adv-x="1540" d="M207 0v1434h477q109 0 216 -28t204 -87t171.5 -142t118.5 -201.5t44 -256.5q0 -139 -44 -258t-118.5 -202.5t-171.5 -143t-204 -87.5t-216 -28h-477zM313 94h371q93 0 184.5 24.5t175 76.5t147 124.5t101 176t37.5 223.5t-37.5 222.5t-101 174.5t-147 123t-174.5 75.5 t-185 24.5h-371v-1245z" />
<glyph unicode="E" horiz-adv-x="1210" d="M207 0v1434h889v-95h-783v-546h734v-95h-734v-604h807v-94h-913z" />
<glyph unicode="F" horiz-adv-x="1142" d="M207 0v1434h864v-95h-758v-551h707v-94h-707v-694h-106z" />
<glyph unicode="G" horiz-adv-x="1492" d="M100 717q0 211 96 380.5t264 265t376 95.5q319 0 510 -188l-70 -70q-163 160 -440 160q-132 0 -248 -48.5t-199.5 -133.5t-131.5 -204.5t-48 -256.5q0 -278 178 -460.5t449 -182.5q225 0 419 59v582h107v-652q-251 -88 -526 -88q-157 0 -294 56t-234 154t-152.5 236 t-55.5 296z" />
<glyph unicode="H" horiz-adv-x="1486" d="M207 0v1434h106v-643h861v643h106v-1434h-106v696h-861v-696h-106z" />
<glyph unicode="I" horiz-adv-x="520" d="M207 0v1434h106v-1434h-106z" />
<glyph unicode="J" horiz-adv-x="993" d="M41 264l94 21q21 -94 98 -152.5t191 -58.5q64 0 113.5 22.5t79 57.5t48 83t25 92.5t6.5 92.5v1012h107v-1012q0 -61 -9 -118t-35 -118.5t-66.5 -106.5t-110 -74.5t-158.5 -29.5q-152 0 -254 80t-129 209z" />
<glyph unicode="K" horiz-adv-x="1259" d="M207 0v1434h106v-768h4l736 768h137l-533 -555l598 -879h-125l-548 803l-269 -281v-522h-106z" />
<glyph unicode="L" horiz-adv-x="1064" d="M207 0v1434h106v-1340h709v-94h-815z" />
<glyph unicode="M" horiz-adv-x="1771" d="M207 0v1434h139l539 -1301h4l538 1301h138v-1434h-107v1241h-4l-510 -1241h-115l-512 1241h-4v-1241h-106z" />
<glyph unicode="N" horiz-adv-x="1554" d="M207 0v1434h143l887 -1309h4v1309h107v-1434h-146l-885 1307h-4v-1307h-106z" />
<glyph unicode="O" horiz-adv-x="1671" d="M100 717q0 211 96 380.5t264 265t376 95.5q207 0 375.5 -95.5t264 -265t95.5 -380.5q0 -158 -56 -296t-153.5 -236t-234 -154t-291.5 -56q-207 0 -375.5 95.5t-264.5 265.5t-96 381zM209 717q0 -137 48 -256.5t131.5 -204.5t199.5 -133.5t248 -48.5t248 48.5t199 133.5 t131 204.5t48 256.5t-48 256.5t-131 204.5t-199 133.5t-248 48.5t-248 -48.5t-199.5 -133.5t-131.5 -204.5t-48 -256.5z" />
<glyph unicode="P" horiz-adv-x="1146" d="M207 0v1434h360q244 0 376 -93t132 -280q0 -184 -130 -280.5t-378 -96.5h-254v-684h-106zM313 778h254q193 0 296.5 73t103.5 210q0 139 -104 208.5t-296 69.5h-254v-561z" />
<glyph unicode="Q" horiz-adv-x="1671" d="M100 717q0 211 96 380.5t264 265t376 95.5q207 0 375.5 -95.5t264 -265t95.5 -380.5q0 -195 -83.5 -356t-230.5 -259.5t-333 -117.5q50 -158 145 -247t219 -89v-92q-168 0 -291.5 111.5t-179.5 307.5q-204 4 -367.5 100t-256.5 264.5t-93 377.5zM209 717 q0 -137 48 -256.5t131.5 -204.5t199.5 -133.5t248 -48.5t248 48.5t199 133.5t131 204.5t48 256.5t-48 256.5t-131 204.5t-199 133.5t-248 48.5t-248 -48.5t-199.5 -133.5t-131.5 -204.5t-48 -256.5z" />
<glyph unicode="R" horiz-adv-x="1232" d="M207 0v1434h383q245 0 376.5 -92t131.5 -279q0 -147 -84.5 -238.5t-247.5 -122.5l416 -702h-119l-410 690q-18 -2 -63 -2h-277v-688h-106zM313 782h277q194 0 296.5 72.5t102.5 208.5q0 137 -103.5 206.5t-295.5 69.5h-277v-557z" />
<glyph unicode="S" horiz-adv-x="1073" d="M90 160l74 65q5 -6 15.5 -16.5t47 -36.5t77.5 -45.5t106.5 -36t134.5 -16.5q146 0 234.5 74.5t88.5 181.5q0 30 -6.5 58t-15 50t-26.5 44.5t-32 38.5t-41.5 35.5t-44 30.5t-50 29t-50 26t-53.5 26q-22 11 -33 16q-157 76 -209 109q-146 93 -178 220q-10 42 -10 89 q0 150 125.5 253t320.5 103q69 0 134 -14.5t108 -35t76 -40.5t48 -34l15 -15l-69 -68q-4 4 -12.5 11.5t-37.5 26.5t-62.5 33t-87.5 26t-112 12q-148 0 -243 -75t-95 -183q0 -61 23 -109t70.5 -85t92 -61t115.5 -58q25 -11 37 -17q158 -77 194 -98q142 -83 190 -190 q30 -68 30 -154q0 -71 -30.5 -135t-85.5 -113t-137.5 -78t-180.5 -29q-82 0 -159 19t-128.5 46t-91 54.5t-58.5 46.5z" />
<glyph unicode="T" horiz-adv-x="1187" d="M41 1339v95h1106v-95h-500v-1339h-106v1339h-500z" />
<glyph unicode="U" horiz-adv-x="1441" d="M188 543v891h107v-891q0 -64 11.5 -125t41.5 -125t76.5 -111t123 -77.5t173.5 -30.5t173.5 30.5t123 77.5t76.5 111t41.5 125t11.5 125v891h106v-891q0 -77 -14 -151t-51.5 -151.5t-95 -134.5t-153.5 -94t-218 -37t-218 37t-154 94t-95.5 134.5t-51.5 151.5t-14 151z" />
<glyph unicode="V" horiz-adv-x="1320" d="M53 1434h113l493 -1325h5l491 1325h113l-537 -1434h-141z" />
<glyph unicode="W" horiz-adv-x="1992" d="M70 1434h110l371 -1297h4l375 1297h139l373 -1295h4l366 1295h111l-407 -1434h-142l-373 1294h-4l-374 -1294h-142z" />
<glyph unicode="X" horiz-adv-x="1214" d="M18 0l523 754l-478 680h127l416 -598h4l416 598h125l-479 -686l526 -748h-125l-467 666h-4l-457 -666h-127z" />
<glyph unicode="Y" horiz-adv-x="1310" d="M57 1434h121l475 -725h4l473 725h123l-544 -828v-606h-107v606z" />
<glyph unicode="Z" horiz-adv-x="1161" d="M61 0v90l887 1245v4h-864v95h997v-91l-886 -1245v-4h899v-94h-1033z" />
<glyph unicode="[" horiz-adv-x="583" d="M209 -315v1798h270v-94h-164v-1610h164v-94h-270z" />
<glyph unicode="\" horiz-adv-x="870" d="M72 1450h114l613 -1466h-115z" />
<glyph unicode="]" horiz-adv-x="583" d="M104 -221h164v1610h-164v94h271v-1798h-271v94z" />
<glyph unicode="^" horiz-adv-x="1234" d="M94 557l465 877h119l463 -877h-117l-403 768h-5l-403 -768h-119z" />
<glyph unicode="_" horiz-adv-x="1011" d="M0 -156h1012v-94h-1012v94z" />
<glyph unicode="`" horiz-adv-x="571" d="M102 1524h131l236 -291h-121z" />
<glyph unicode="a" d="M74 258q0 71 27.5 127t80.5 93.5t119 63t156 40t176.5 20.5t195.5 8v68q0 132 -82.5 204t-209.5 72q-105 0 -193 -32.5t-141 -85.5l-68 67q65 65 171 105.5t231 40.5q112 0 200 -40t142.5 -125.5t54.5 -205.5v-463q0 -62 26.5 -91.5t67.5 -29.5l21 2l16 -92q-4 -4 -37 -4 q-61 0 -106.5 32t-61.5 101h-4q-187 -158 -385 -158q-59 0 -113 8.5t-106.5 29.5t-91.5 52.5t-62.5 81t-23.5 111.5zM180 258q0 -51 26 -89t69.5 -59t92.5 -30.5t103 -9.5q184 0 358 159v289q-93 -2 -168 -7t-152.5 -15.5t-134 -30t-102 -47t-69 -68t-23.5 -92.5z" />
<glyph unicode="b" horiz-adv-x="1224" d="M166 0v1495h104v-594h4q135 148 338 148q107 0 203.5 -41t167.5 -112t112.5 -171t41.5 -213t-41.5 -213t-112.5 -171t-167.5 -112t-203.5 -41q-202 0 -338 146h-4v-121h-104zM270 256q57 -89 146.5 -137.5t195.5 -48.5q174 0 296 127t122 315t-122 315t-296 127 q-105 0 -194.5 -50.5t-147.5 -139.5v-508z" />
<glyph unicode="c" horiz-adv-x="1083" d="M90 512q0 163 74 287t196 187t273 63q131 0 228 -47t155 -130l-78 -53q-94 135 -305 135q-186 0 -311 -120.5t-125 -321.5q0 -196 124 -319t324 -123q56 0 108 14.5t86 35t60 40.5t37 34l12 15l76 -57q-5 -7 -15.5 -19t-46.5 -42.5t-76.5 -54t-106 -42.5t-134.5 -19 q-248 0 -401.5 149t-153.5 388z" />
<glyph unicode="d" horiz-adv-x="1249" d="M88 512q0 150 70.5 274t190.5 193.5t263 69.5q202 0 340 -148h4v594h103v-1280q0 -61 27.5 -91t66.5 -30l21 2q3 -15 9 -45.5t9 -46.5q-8 -4 -39 -4q-63 0 -113.5 36t-58.5 109h-4q-66 -80 -160 -125t-205 -45q-143 0 -263 69.5t-190.5 193.5t-70.5 274zM195 512 q0 -124 56.5 -226t152 -159t208.5 -57q105 0 196 49t148 137v508q-59 89 -149.5 139.5t-194.5 50.5q-113 0 -208.5 -57t-152 -159t-56.5 -226z" />
<glyph unicode="e" horiz-adv-x="1177" d="M88 512q0 163 74 287t196 187t273 63q111 0 200 -34.5t144.5 -94.5t85 -138t29.5 -168l-7 -108h-888q6 -196 138.5 -316t332.5 -120q59 0 115.5 12t95 29.5t69.5 35t46 29.5l14 12l63 -69q-6 -6 -18 -15.5t-52.5 -34.5t-84.5 -44t-111.5 -34.5t-136.5 -15.5 q-251 0 -414.5 150.5t-163.5 386.5zM203 596h778v18q0 138 -86 236q-92 104 -264 104q-164 0 -283 -96.5t-145 -261.5z" />
<glyph unicode="f" horiz-adv-x="516" d="M68 932v92h125v256q0 61 15.5 104.5t37.5 66t58.5 35t63.5 15t68 2.5q30 0 92 -10l-14 -92q-40 8 -78 8q-29 0 -49 -3.5t-43 -15t-35 -39.5t-12 -71v-256h192v-92h-192v-932h-104v932h-125z" />
<glyph unicode="g" horiz-adv-x="1200" d="M90 524q0 147 68.5 268t185.5 189t256 68q193 0 326 -146h4v121h104v-997q0 -96 -30 -174t-81 -130t-121.5 -87t-148.5 -50.5t-164 -15.5q-164 0 -299 63l37 88q120 -57 262 -57q87 0 163.5 21t139.5 62.5t100 113.5t38 166v118h-4q-132 -145 -326 -145q-139 0 -256 67.5 t-185.5 188.5t-68.5 268zM184 524q0 -183 121.5 -306.5t294.5 -123.5q102 0 187.5 51.5t142.5 137.5v487q-56 86 -143 135t-187 49q-173 0 -294.5 -123.5t-121.5 -306.5z" />
<glyph unicode="h" horiz-adv-x="1251" d="M164 0v1495h104v-610h4q61 71 159.5 117.5t201.5 46.5q229 0 348 -113t119 -309v-627h-103v627q0 152 -93.5 239.5t-270.5 87.5q-123 0 -217 -53.5t-148 -146.5v-754h-104z" />
<glyph unicode="i" horiz-adv-x="448" d="M172 0v1024h104v-1024h-104zM172 1260v174h104v-174h-104z" />
<glyph unicode="j" horiz-adv-x="448" d="M-29 -324q54 0 86 5t61 20.5t41.5 48.5t12.5 86v1188h104v-1188q0 -70 -14 -117t-36 -74t-64.5 -41.5t-83 -18t-107.5 -3.5v94zM172 1260v174h104v-174h-104z" />
<glyph unicode="k" horiz-adv-x="1050" d="M164 0v1495h104v-999h4l596 528h150l-471 -412l491 -612h-125l-440 549l-205 -182v-367h-104z" />
<glyph unicode="l" horiz-adv-x="454" d="M166 203v1292h104v-1292q0 -63 22 -89q17 -20 44 -20q8 0 16 2l17 -92q-4 -4 -37 -4q-72 0 -119 49t-47 154z" />
<glyph unicode="m" horiz-adv-x="1816" d="M164 0v1024h104v-131h4q53 70 130 113t161 43q136 0 225 -51t127 -144h5q46 83 143 139t197 56q182 0 293.5 -119t111.5 -303v-627h-102v627q0 150 -83.5 238.5t-236.5 88.5q-85 0 -166 -50.5t-112 -131.5v-772h-105v743q0 95 -82.5 153t-214.5 58q-93 0 -175.5 -51 t-119.5 -131v-772h-104z" />
<glyph unicode="n" horiz-adv-x="1253" d="M166 0v1024h104v-139h4q61 71 159.5 117.5t201.5 46.5q229 0 348 -113t119 -309v-627h-103v627q0 152 -93.5 239.5t-270.5 87.5q-123 0 -217 -53.5t-148 -146.5v-754h-104z" />
<glyph unicode="o" horiz-adv-x="1265" d="M88 512q0 231 154 384t389 153q157 0 282 -70t194 -192.5t69 -274.5t-69 -274.5t-194 -192.5t-282 -70q-235 0 -389 153t-154 384zM195 512q0 -191 123.5 -316.5t312.5 -125.5q191 0 314.5 125.5t123.5 316.5t-123.5 316.5t-314.5 125.5q-189 0 -312.5 -125.5 t-123.5 -316.5z" />
<glyph unicode="p" horiz-adv-x="1249" d="M57 1020q4 4 37 4q63 0 113.5 -36t58.5 -109h4q144 170 367 170q143 0 263 -69.5t190.5 -193.5t70.5 -274t-70.5 -274t-190.5 -193.5t-263 -69.5q-202 0 -340 148h-4v-533h-105v1219q0 62 -26.5 91.5t-67.5 29.5l-20 -2zM293 260q59 -90 149 -140t195 -50q174 0 296 127 t122 315t-122 315t-296 127q-106 0 -196.5 -49t-147.5 -137v-508z" />
<glyph unicode="q" horiz-adv-x="1224" d="M88 512q0 150 70.5 274t190.5 193.5t263 69.5q204 0 340 -146h4v121h103v-1434h-103v533h-4q-138 -148 -340 -148q-143 0 -263 69.5t-190.5 193.5t-70.5 274zM195 512q0 -124 56.5 -226t152 -159t208.5 -57q106 0 195.5 50t148.5 140v508q-57 88 -147.5 137t-196.5 49 q-113 0 -208.5 -57t-152 -159t-56.5 -226z" />
<glyph unicode="r" horiz-adv-x="688" d="M166 0v1024h104v-145h4q51 65 127.5 109t161.5 44q73 0 115 -12l-25 -92q-34 10 -90 10q-102 0 -187 -58.5t-106 -121.5v-758h-104z" />
<glyph unicode="s" horiz-adv-x="892" d="M80 125l70 63q4 -5 12.5 -13t37 -28t61 -35.5t85.5 -28.5t109 -13q116 0 183 51.5t67 126.5q0 29 -9 54.5t-21 44t-35.5 36t-42.5 28.5t-52.5 24.5t-54 20.5t-58.5 19q-46 15 -71.5 24t-65.5 26t-63 31.5t-50.5 37.5t-42 47.5t-25 58t-10.5 72.5q0 120 105 198.5 t262 78.5q57 0 110.5 -11.5t88 -28t61.5 -33.5t39 -28l12 -12l-69 -66q-3 3 -9.5 9t-29 20.5t-48.5 25.5t-68 20t-87 9q-110 0 -185 -51.5t-75 -130.5q0 -35 15.5 -64.5t36.5 -48.5t60 -38.5t66.5 -29.5t75.5 -26q51 -17 84 -29.5t78.5 -33.5t74 -43.5t56 -53t40.5 -70.5 t13 -87q0 -118 -94.5 -195.5t-261.5 -77.5q-68 0 -131.5 15.5t-105.5 37.5t-75 44t-48 38z" />
<glyph unicode="t" horiz-adv-x="575" d="M37 932v92h170v360h104v-360h199v-92h-199v-717q0 -35 9 -60t21.5 -38t33.5 -20.5t37 -9t39 -1.5q37 0 77 8l15 -92q-63 -10 -92 -10q-41 0 -68.5 2.5t-64 15t-58 35t-37.5 66t-16 104.5v717h-170z" />
<glyph unicode="u" horiz-adv-x="1253" d="M152 397v627h104v-627q0 -152 92.5 -239.5t269.5 -87.5q123 0 217 53.5t150 146.5v754h102v-1024h-102v139h-4q-61 -70 -160.5 -117t-202.5 -47q-229 0 -347.5 113t-118.5 309z" />
<glyph unicode="v" horiz-adv-x="1128" d="M47 1024h113l401 -903h4l408 903h112l-467 -1024h-110z" />
<glyph unicode="w" horiz-adv-x="1650" d="M61 1024h107l281 -866h4l313 866h111l319 -872h4l279 872h108l-330 -1024h-110l-322 879h-4l-317 -879h-109z" />
<glyph unicode="x" horiz-adv-x="989" d="M31 0l397 537l-369 487h123l310 -414h4l311 414h123l-375 -494l403 -530h-122l-342 457h-5l-335 -457h-123z" />
<glyph unicode="y" horiz-adv-x="1128" d="M47 1024h111l403 -899h4l408 899h110l-553 -1214q-58 -128 -126 -178t-205 -50q-67 0 -131 15l20 88q64 -11 111 -11q91 0 141.5 37.5t95.5 134.5l72 158z" />
<glyph unicode="z" horiz-adv-x="956" d="M59 0v80l674 848v4h-643v92h778v-80l-673 -848v-4h696v-92h-832z" />
<glyph unicode="{" horiz-adv-x="563" d="M90 537v94q56 0 75 41t19 151v385q0 75 22 130t60.5 85.5t84.5 45t100 14.5h24v-94h-24q-69 0 -114.5 -44t-45.5 -137v-385q0 -199 -82 -237v-4q82 -40 82 -240v-385q0 -93 45.5 -135.5t114.5 -42.5h24v-94h-24q-54 0 -100 14t-84.5 44t-60.5 84.5t-22 129.5v385 q0 111 -19 153t-75 42z" />
<glyph unicode="|" horiz-adv-x="516" d="M205 -506v2026h106v-2026h-106z" />
<glyph unicode="}" horiz-adv-x="563" d="M88 -221h25q69 0 113 42.5t44 135.5v385q0 198 82 240v4q-41 19 -61.5 83.5t-20.5 153.5v385q0 93 -44.5 137t-112.5 44h-25v94h25q115 0 189.5 -65.5t74.5 -209.5v-385q0 -110 19.5 -151t76.5 -41v-94q-57 0 -76.5 -41.5t-19.5 -153.5v-385q0 -75 -21.5 -129.5 t-59.5 -84.5t-83.5 -44t-99.5 -14h-25v94z" />
<glyph unicode="~" horiz-adv-x="1384" d="M164 520q20 69 40 116t51.5 90t78 64t108.5 21q77 0 149.5 -31t158.5 -90q120 -78 196 -78q70 0 111.5 49.5t70.5 143.5h103q-21 -71 -41 -117t-52.5 -89.5t-80 -64t-111.5 -20.5q-115 0 -254 92q-77 52 -136.5 79.5t-113.5 27.5q-67 0 -106.5 -49.5t-69.5 -143.5h-102z " />
<glyph unicode="&#xa1;" horiz-adv-x="495" d="M195 -410v1045h106v-1045h-106zM195 850v174h106v-174h-106z" />
<glyph unicode="&#xa2;" horiz-adv-x="1150" d="M109 512q0 221 129 362t331 168v177h103v-172q240 -6 362 -175l-78 -53q-94 135 -305 135q-186 0 -311 -120.5t-125 -321.5q0 -196 124.5 -319t324.5 -123q56 0 108 14.5t86 35t60 40.5t38 34l11 15l75 -57l-1 -1q-65 -83 -172 -132q-93 -42 -197 -44v-170h-103v179 q-210 28 -335 170.5t-125 357.5z" />
<glyph unicode="&#xa3;" horiz-adv-x="1099" d="M109 35q70 92 127 279t67 364h-182v94h182q0 44 1 134.5t1 135.5q1 183 109 299.5t272 116.5q110 0 236 -74l-50 -84q-101 60 -186 60q-118 0 -196 -89t-78 -229q0 -45 -1 -135.5t-1 -134.5h360v-94h-362q-7 -136 -47.5 -286.5t-96.5 -272.5l4 -2q70 18 121 18 q54 0 150.5 -27.5t167.5 -33.5q71 0 130 22t126 78l61 -76q-84 -68 -156 -95.5t-161 -27.5q-70 0 -174 30t-146 30q-105 0 -221 -62z" />
<glyph unicode="&#xa4;" horiz-adv-x="1462" d="M133 98l209 209q-100 130 -100 320q0 183 102 313l-199 207l74 65l191 -198q134 112 323 112t318 -110l194 194l74 -65l-201 -201q107 -132 107 -317q0 -189 -103 -320l209 -207l-74 -65l-204 201q-127 -115 -320 -115q-192 0 -323 115l-203 -203zM350 627 q0 -173 106 -290.5t277 -117.5t276 117.5t105 290.5q0 170 -105 285.5t-276 115.5t-277 -115.5t-106 -285.5z" />
<glyph unicode="&#xa5;" horiz-adv-x="1329" d="M68 1434h120l476 -725h4l473 725h123l-519 -785h287v-96h-313v-199h313v-94h-313v-260h-107v260h-323v94h323v199h-323v96h295z" />
<glyph unicode="&#xa6;" horiz-adv-x="528" d="M211 -354v708h106v-708h-106zM211 657v709h106v-709h-106z" />
<glyph unicode="&#xa7;" horiz-adv-x="1007" d="M106 -104l72 67q4 -5 13 -13t38.5 -28t63.5 -35.5t88 -28t111 -12.5q116 0 188 57.5t72 131.5q0 30 -9.5 58t-22 49.5t-38 45t-45 38t-56.5 35.5t-57.5 31.5t-62.5 31.5q-48 24 -73 37t-66.5 37t-64 42t-51.5 46t-43.5 55t-25 62.5t-10.5 74.5q0 77 51.5 144t140.5 104v4 q-149 105 -149 241q0 120 109 204t272 83q58 -1 112 -12.5t90 -27.5t63.5 -32t40.5 -27l13 -11l-69 -70q-4 3 -10.5 8.5t-30 20t-50.5 25t-70 19.5t-89 9q-118 0 -195 -56.5t-77 -132.5q0 -27 8.5 -51.5t20.5 -43.5t35.5 -40t42 -35t52.5 -33t54 -29.5t59 -29.5 q152 -77 211 -122q133 -102 133 -246q0 -75 -51 -141.5t-139 -102.5v-4q157 -112 157 -258q0 -112 -103.5 -199.5t-266.5 -87.5q-69 0 -134.5 15t-109 37t-77.5 44t-49 37zM236 678q0 -37 16.5 -71t39.5 -59t64.5 -52t72.5 -43.5t83 -42.5q16 -8 88 -48q85 17 135.5 68.5 t50.5 110.5q0 49 -20 89t-70 77.5t-80 55t-103 54.5q-7 4 -11 6q-16 6 -44.5 21t-31.5 16q-86 -17 -138 -68t-52 -114z" />
<glyph unicode="&#xa8;" horiz-adv-x="700" d="M102 1260v174h107v-174h-107zM492 1260v174h106v-174h-106z" />
<glyph unicode="&#xa9;" horiz-adv-x="1724" d="M111 719q0 153 53 287.5t148 235t237 158.5t311 58q170 0 313 -58t239 -158.5t149 -235t53 -287.5q0 -154 -53 -290t-149 -236.5t-239 -159t-313 -58.5q-169 0 -311 58.5t-237 159t-148 236.5t-53 290zM219 719q0 -179 77 -325t224.5 -233t339.5 -87q193 0 341.5 87 t226 232.5t77.5 325.5q0 178 -77.5 323t-226 231.5t-341.5 86.5q-144 0 -265.5 -50.5t-203 -137t-127 -204t-45.5 -249.5zM440 723q0 195 127 323t318 128q95 0 178 -37t127 -99l-80 -57q-32 43 -92.5 68.5t-132.5 25.5q-143 0 -239.5 -100t-96.5 -252q0 -151 95 -250.5 t241 -99.5q158 0 241 116l80 -57q-49 -69 -131 -113.5t-190 -44.5q-193 0 -319 127.5t-126 321.5z" />
<glyph unicode="&#xaa;" horiz-adv-x="806" d="M123 1016q0 49 20.5 85.5t53.5 59t83.5 36.5t102 20t117.5 8v26q0 53 -34.5 83t-84.5 30q-103 0 -156 -53l-67 65q35 37 94 59.5t129 22.5q97 0 160 -54t63 -153v-239q0 -26 14.5 -36.5t47.5 -10.5h12v-93h-12q-61 0 -93 17.5t-41 58.5h-4q-69 -90 -184 -90 q-41 0 -78 7.5t-70.5 25t-53 49.5t-19.5 76zM229 1028q0 -40 34 -58t81 -18q79 0 156 66v117q-271 -7 -271 -107z" />
<glyph unicode="&#xab;" horiz-adv-x="1032" d="M113 524l276 422h121l-277 -424l275 -418h-121zM512 524l276 422h121l-276 -424l274 -418h-121z" />
<glyph unicode="&#xac;" horiz-adv-x="1347" d="M129 772v94h1051v-581h-107v487h-944z" />
<glyph unicode="&#xad;" horiz-adv-x="716" d="M113 485v95h491v-95h-491z" />
<glyph unicode="&#xae;" horiz-adv-x="1724" d="M111 719q0 153 53 287.5t148 235t237 158.5t311 58q170 0 313 -58t239 -158.5t149 -235t53 -287.5q0 -154 -53 -290t-149 -236.5t-239 -159t-313 -58.5q-169 0 -311 58.5t-237 159t-148 236.5t-53 290zM219 719q0 -179 77 -325t224.5 -233t339.5 -87q193 0 341.5 87 t226 232.5t77.5 325.5q0 178 -77.5 323t-226 231.5t-341.5 86.5q-144 0 -265.5 -50.5t-203 -137t-127 -204t-45.5 -249.5zM586 289v870h256q307 0 307 -229q0 -175 -176 -219l250 -422h-119l-242 405h-170v-405h-106zM692 788h150q97 0 147.5 37t50.5 105q0 67 -51.5 101 t-146.5 34h-150v-277z" />
<glyph unicode="&#xaf;" horiz-adv-x="751" d="M102 1309v94h547v-94h-547z" />
<glyph unicode="&#xb0;" horiz-adv-x="794" d="M115 1176q0 123 80 202.5t202 79.5q123 0 203 -79.5t80 -202.5q0 -122 -80 -202.5t-203 -80.5q-121 0 -201.5 80.5t-80.5 202.5zM223 1176q0 -79 50 -133t124 -54q75 0 124.5 53.5t49.5 133.5t-49.5 133t-124.5 53q-74 0 -124 -53.5t-50 -132.5z" />
<glyph unicode="&#xb1;" horiz-adv-x="1464" d="M174 57v95h1116v-95h-1116zM174 778v94h506v361h106v-361h504v-94h-504v-354h-106v354h-506z" />
<glyph unicode="&#xb2;" horiz-adv-x="876" d="M143 588v106q0 72 48.5 136.5t117.5 112t137.5 91t117 91t48.5 94.5q0 57 -48.5 100t-129.5 43q-39 0 -73.5 -11.5t-55.5 -28t-36.5 -32.5t-22.5 -28l-6 -11l-43 21.5l-43 21.5q3 7 10 18t32 39t54.5 50t79 39.5t104.5 17.5q129 0 208 -72t79 -167q0 -49 -26 -94.5 t-67 -80.5t-91 -68.5t-100.5 -65.5t-91.5 -64t-67 -71t-26 -81v-12h469v-94h-578z" />
<glyph unicode="&#xb3;" horiz-adv-x="833" d="M113 733l84 43q0 -1 4.5 -7.5t8 -11.5t10.5 -14t13.5 -16t17 -16t21 -16t25.5 -14t30 -11.5t34 -7.5t40 -3q199 0 199 162q0 74 -57.5 114t-120.5 40h-76v94h76q59 0 107.5 41t48.5 107q0 60 -43.5 101.5t-126.5 41.5q-127 0 -181 -86l-82 47q84 135 263 135 q133 0 204.5 -70.5t71.5 -168.5q0 -73 -39.5 -123t-95.5 -66v-4q64 -17 112 -70.5t48 -132.5q0 -128 -82 -193t-226 -65q-195 0 -288 170z" />
<glyph unicode="&#xb4;" horiz-adv-x="571" d="M102 1233l238 291h129l-244 -291h-123z" />
<glyph unicode="&#xb5;" horiz-adv-x="1345" d="M199 -410v1434h104v-633q0 -148 93.5 -234.5t269.5 -86.5q123 0 216.5 53t149.5 147v754h103v-1024h-103v139h-4q-61 -71 -160 -117.5t-202 -46.5q-132 0 -224 41t-135 117h-4v-543h-104z" />
<glyph unicode="&#xb6;" horiz-adv-x="1271" d="M70 1016q0 197 123.5 308.5t338.5 109.5h504v-1690h-106v1595h-291v-1595h-107v895q-215 0 -338.5 99.5t-123.5 277.5z" />
<glyph unicode="&#xb7;" horiz-adv-x="376" d="M135 598v174h107v-174h-107z" />
<glyph unicode="&#xb8;" horiz-adv-x="618" d="M102 -391l50 82q52 -31 145 -31q45 0 79 16.5t34 51.5q0 30 -30 45.5t-69 15.5q-55 0 -106 -31l-60 60l123 182h117l-123 -154l4 -2q38 17 76 17q41 0 78 -11.5t66.5 -44t29.5 -81.5q0 -55 -34 -92t-81.5 -51.5t-103.5 -14.5q-57 0 -111.5 12.5t-83.5 30.5z" />
<glyph unicode="&#xb9;" horiz-adv-x="524" d="M74 1309l151 125h133v-846h-104v737h-4l-111 -90z" />
<glyph unicode="&#xba;" horiz-adv-x="837" d="M115 1157q0 129 85.5 215t217.5 86q133 0 219 -85.5t86 -215.5q0 -128 -86 -213.5t-219 -85.5q-131 0 -217 85.5t-86 213.5zM223 1157q0 -87 55.5 -144t139.5 -57q86 0 141 57t55 144t-55 145t-141 58q-84 0 -139.5 -58t-55.5 -145z" />
<glyph unicode="&#xbb;" horiz-adv-x="1032" d="M123 946h121l276 -422l-274 -420h-121l274 418zM522 946h121l277 -422l-275 -420h-121l275 418z" />
<glyph unicode="&#xbc;" horiz-adv-x="1568" d="M70 1325l151 125h133v-864h-104v755h-4l-111 -90zM223 -35l924 1522h119l-924 -1522h-119zM862 199v125l383 540h121v-571h117v-94h-117v-199h-106v199h-398zM971 293h289v407h-5l-284 -403v-4z" />
<glyph unicode="&#xbd;" horiz-adv-x="1669" d="M68 1325l151 125h133v-864h-104v755h-4l-111 -90zM221 -35l924 1522h119l-924 -1522h-119zM985 0v106q0 53 26 102.5t68 88.5t92.5 75t100.5 68.5t92 63.5t68 66t26 69q0 58 -49 100.5t-131 42.5q-39 0 -73.5 -11.5t-56 -28t-37.5 -33t-23 -27.5l-7 -12l-86 45q3 7 10 18 t32.5 39t55 50t79.5 39.5t106 17.5q130 0 209.5 -72.5t79.5 -167.5q0 -49 -26 -94.5t-68 -81t-92.5 -69t-101.5 -66.5t-93 -65.5t-68 -73t-26 -83.5v-12h475v-94h-582z" />
<glyph unicode="&#xbe;" horiz-adv-x="1720" d="M82 752l84 43l4 -7q5 -8 8.5 -12.5l10.5 -13.5t13.5 -16t17.5 -16t21.5 -16t25 -14t30 -11.5t34.5 -7.5t40 -3q95 0 146.5 40.5t51.5 121.5q0 71 -58.5 112t-119.5 41h-76v92h76q58 0 106 42.5t48 107.5q0 59 -43.5 101t-126.5 42q-117 0 -178 -86l-82 47q84 136 260 136 q133 0 205.5 -71.5t72.5 -168.5q0 -72 -39.5 -122t-95.5 -69v-4q63 -17 110.5 -69.5t47.5 -130.5q0 -128 -81 -193t-224 -65q-196 0 -289 170zM383 -35l924 1522h118l-923 -1522h-119zM1022 199v125l383 540h121v-571h116v-94h-116v-199h-107v199h-397zM1133 293h286v407h-4 l-282 -403v-4z" />
<glyph unicode="&#xbf;" horiz-adv-x="958" d="M86 -80q0 61 14.5 110.5t44.5 89.5t57.5 66t73.5 62q94 75 131 135t37 162v90h107v-90q0 -69 -11 -119.5t-39.5 -94.5t-62.5 -77.5t-94 -81.5q-47 -36 -75.5 -65.5t-51 -78.5t-22.5 -108q0 -117 80.5 -184.5t203.5 -67.5q120 0 203 68.5t106 187.5l97 -18 q-31 -157 -139.5 -246.5t-266.5 -89.5q-170 0 -281.5 93t-111.5 257zM444 850v174h107v-174h-107z" />
<glyph unicode="&#xc0;" horiz-adv-x="1388" d="M18 0l621 1434h113l614 -1434h-113l-168 397h-784l-170 -397h-113zM342 492h700l-344 813h-4zM387 1841h131l238 -291h-123z" />
<glyph unicode="&#xc1;" horiz-adv-x="1388" d="M18 0l621 1434h113l614 -1434h-113l-168 397h-784l-170 -397h-113zM342 492h700l-344 813h-4zM631 1550l237 291h129l-243 -291h-123z" />
<glyph unicode="&#xc2;" horiz-adv-x="1388" d="M18 0l621 1434h113l614 -1434h-113l-168 397h-784l-170 -397h-113zM342 492h700l-344 813h-4zM401 1552l232 299h117l231 -299h-125l-162 209h-4l-162 -209h-127z" />
<glyph unicode="&#xc3;" horiz-adv-x="1388" d="M18 0l621 1434h113l614 -1434h-113l-168 397h-784l-170 -397h-113zM342 492h700l-344 813h-4zM371 1593q20 93 68 144t114 51q77 0 184 -68q75 -41 103 -41q29 0 51.5 25t34.5 68h100q-20 -93 -67 -142t-115 -49q-64 0 -156 53q-81 56 -133 56q-27 0 -50.5 -27t-35.5 -70 h-98z" />
<glyph unicode="&#xc4;" horiz-adv-x="1388" d="M18 0l621 1434h113l614 -1434h-113l-168 397h-784l-170 -397h-113zM342 492h700l-344 813h-4zM449 1638v174h106v-174h-106zM838 1638v174h106v-174h-106z" />
<glyph unicode="&#xc5;" horiz-adv-x="1388" d="M18 0l621 1434h113l614 -1434h-113l-168 397h-784l-170 -397h-113zM342 492h700l-344 813h-4zM502 1724q0 81 57 137t137 56q79 0 137 -56t58 -137q0 -82 -57.5 -137t-137.5 -55q-81 0 -137.5 55t-56.5 137zM594 1724q0 -42 29.5 -70t72.5 -28q41 0 71 28t30 70 q0 41 -30.5 70t-70.5 29q-43 0 -72.5 -29t-29.5 -70z" />
<glyph unicode="&#xc7;" horiz-adv-x="1419" d="M100 717q0 211 96 380.5t264 265t376 95.5q156 0 292.5 -60.5t208.5 -162.5l-80 -57q-60 84 -174 133t-247 49q-132 0 -248 -48.5t-199.5 -133.5t-131.5 -204.5t-48 -256.5q0 -278 178 -460.5t449 -182.5q153 0 268 61.5t178 157.5l82 -55q-79 -116 -211.5 -187 t-304.5 -74l-103 -131l5 -2q38 17 75 17q41 0 78 -11.5t66.5 -44t29.5 -81.5q0 -55 -34 -92t-81.5 -51.5t-103.5 -14.5q-57 0 -111 12.5t-83 30.5l49 82q52 -31 145 -31q45 0 79 16.5t34 51.5q0 30 -30 45.5t-68 15.5q-56 0 -107 -31l-59 60l108 164q-282 32 -459.5 236 t-177.5 499z" />
<glyph unicode="&#xc8;" horiz-adv-x="1210" d="M207 0v1434h889v-95h-783v-546h734v-95h-734v-604h807v-94h-913zM406 1841h131l237 -291h-123z" />
<glyph unicode="&#xc9;" horiz-adv-x="1210" d="M207 0v1434h889v-95h-783v-546h734v-95h-734v-604h807v-94h-913zM551 1550l237 291h130l-244 -291h-123z" />
<glyph unicode="&#xca;" horiz-adv-x="1210" d="M207 0v1434h889v-95h-783v-546h734v-95h-734v-604h807v-94h-913zM369 1552l231 299h117l231 -299h-125l-161 209h-5l-161 -209h-127z" />
<glyph unicode="&#xcb;" horiz-adv-x="1210" d="M207 0v1434h889v-95h-783v-546h734v-95h-734v-604h807v-94h-913zM412 1638v174h106v-174h-106zM801 1638v174h106v-174h-106z" />
<glyph unicode="&#xcc;" horiz-adv-x="522" d="M-45 1841h131l236 -291h-121zM209 0v1434h106v-1434h-106z" />
<glyph unicode="&#xcd;" horiz-adv-x="522" d="M201 1550l237 291h129l-243 -291h-123zM209 0v1434h106v-1434h-106z" />
<glyph unicode="&#xce;" horiz-adv-x="522" d="M-29 1552l232 299h116l232 -299h-125l-162 209h-4l-162 -209h-127zM209 0v1434h106v-1434h-106z" />
<glyph unicode="&#xcf;" horiz-adv-x="522" d="M12 1638v174h107v-174h-107zM207 0v1434h106v-1434h-106zM401 1638v174h107v-174h-107z" />
<glyph unicode="&#xd0;" horiz-adv-x="1556" d="M76 709v94h147v631h477q109 0 216 -28t204 -87t171.5 -142t118.5 -201.5t44 -256.5q0 -139 -44 -258t-118.5 -202.5t-171.5 -143t-204 -87.5t-216 -28h-477v709h-147zM330 94h370q118 0 231 40.5t206.5 116t151 197.5t57.5 271q0 120 -37.5 222.5t-101.5 174.5t-147 123 t-174.5 75.5t-185.5 24.5h-370v-536h561v-94h-561v-615z" />
<glyph unicode="&#xd1;" horiz-adv-x="1552" d="M207 0v1434h143l885 -1309h4v1309h107v-1434h-144l-885 1307h-4v-1307h-106zM453 1593q20 93 68.5 144t115.5 51q77 0 184 -68q71 -41 103 -41q29 0 51.5 25t34.5 68h100q-44 -191 -184 -191q-66 0 -154 53q-81 56 -133 56q-28 0 -51 -26.5t-35 -70.5h-100z" />
<glyph unicode="&#xd2;" horiz-adv-x="1671" d="M100 717q0 211 96 380.5t264 265t376 95.5q207 0 375.5 -95.5t264 -265t95.5 -380.5q0 -158 -56 -296t-153.5 -236t-234 -154t-291.5 -56q-207 0 -375.5 95.5t-264.5 265.5t-96 381zM209 717q0 -137 48 -256.5t131.5 -204.5t199.5 -133.5t248 -48.5t248 48.5t199 133.5 t131 204.5t48 256.5t-48 256.5t-131 204.5t-199 133.5t-248 48.5t-248 -48.5t-199.5 -133.5t-131.5 -204.5t-48 -256.5zM612 1841h131l236 -291h-121z" />
<glyph unicode="&#xd3;" horiz-adv-x="1671" d="M100 717q0 211 96 380.5t264 265t376 95.5q207 0 375.5 -95.5t264 -265t95.5 -380.5q0 -158 -56 -296t-153.5 -236t-234 -154t-291.5 -56q-207 0 -375.5 95.5t-264.5 265.5t-96 381zM209 717q0 -137 48 -256.5t131.5 -204.5t199.5 -133.5t248 -48.5t248 48.5t199 133.5 t131 204.5t48 256.5t-48 256.5t-131 204.5t-199 133.5t-248 48.5t-248 -48.5t-199.5 -133.5t-131.5 -204.5t-48 -256.5zM727 1550l236 291h131l-246 -291h-121z" />
<glyph unicode="&#xd4;" horiz-adv-x="1671" d="M100 717q0 211 96 380.5t264 265t376 95.5q207 0 375.5 -95.5t264 -265t95.5 -380.5q0 -158 -56 -296t-153.5 -236t-234 -154t-291.5 -56q-207 0 -375.5 95.5t-264.5 265.5t-96 381zM209 717q0 -137 48 -256.5t131.5 -204.5t199.5 -133.5t248 -48.5t248 48.5t199 133.5 t131 204.5t48 256.5t-48 256.5t-131 204.5t-199 133.5t-248 48.5t-248 -48.5t-199.5 -133.5t-131.5 -204.5t-48 -256.5zM545 1552l231 299h117l233 -299h-127l-161 209h-4l-162 -209h-127z" />
<glyph unicode="&#xd5;" horiz-adv-x="1671" d="M100 717q0 211 96 380.5t264 265t376 95.5q207 0 375.5 -95.5t264 -265t95.5 -380.5q0 -158 -56 -296t-153.5 -236t-234 -154t-291.5 -56q-207 0 -375.5 95.5t-264.5 265.5t-96 381zM209 717q0 -137 48 -256.5t131.5 -204.5t199.5 -133.5t248 -48.5t248 48.5t199 133.5 t131 204.5t48 256.5t-48 256.5t-131 204.5t-199 133.5t-248 48.5t-248 -48.5t-199.5 -133.5t-131.5 -204.5t-48 -256.5zM512 1593q20 93 68.5 144t113.5 51q76 0 187 -68q71 -41 102 -41q29 0 51.5 25t34.5 68h100q-44 -191 -184 -191q-66 0 -154 53q-85 56 -133 56 q-29 0 -52 -27t-34 -70h-100z" />
<glyph unicode="&#xd6;" horiz-adv-x="1671" d="M100 717q0 211 96 380.5t264 265t376 95.5q207 0 375.5 -95.5t264 -265t95.5 -380.5q0 -158 -56 -296t-153.5 -236t-234 -154t-291.5 -56q-207 0 -375.5 95.5t-264.5 265.5t-96 381zM209 717q0 -137 48 -256.5t131.5 -204.5t199.5 -133.5t248 -48.5t248 48.5t199 133.5 t131 204.5t48 256.5t-48 256.5t-131 204.5t-199 133.5t-248 48.5t-248 -48.5t-199.5 -133.5t-131.5 -204.5t-48 -256.5zM588 1638v174h106v-174h-106zM977 1638v174h106v-174h-106z" />
<glyph unicode="&#xd7;" d="M123 1028l76 66l358 -361l354 357l76 -66l-358 -362l356 -361l-76 -65l-352 354l-356 -357l-76 66l360 363z" />
<glyph unicode="&#xd8;" horiz-adv-x="1662" d="M96 717q0 211 95.5 380.5t264 265t375.5 95.5q270 0 469 -162l152 162l78 -65l-156 -166q92 -98 142.5 -229t50.5 -281q0 -211 -96 -381t-264.5 -265.5t-375.5 -95.5q-272 0 -471 162l-147 -157l-78 65l152 162q-92 98 -141.5 228.5t-49.5 281.5zM205 717 q0 -254 155 -430l871 934q-172 139 -400 139q-132 0 -248 -48.5t-199 -133.5t-131 -204.5t-48 -256.5zM430 213q167 -139 401 -139q132 0 248 48.5t199.5 133.5t131.5 204.5t48 256.5q0 251 -155 430z" />
<glyph unicode="&#xd9;" horiz-adv-x="1441" d="M188 543v891h107v-891q0 -64 11.5 -125t41.5 -125t76.5 -111t123 -77.5t173.5 -30.5t173.5 30.5t123 77.5t76.5 111t41.5 125t11.5 125v891h106v-891q0 -77 -14 -151t-51.5 -151.5t-95 -134.5t-153.5 -94t-218 -37t-218 37t-154 94t-95.5 134.5t-51.5 151.5t-14 151z M473 1841h131l236 -291h-121z" />
<glyph unicode="&#xda;" horiz-adv-x="1441" d="M188 543v891h107v-891q0 -64 11.5 -125t41.5 -125t76.5 -111t123 -77.5t173.5 -30.5t173.5 30.5t123 77.5t76.5 111t41.5 125t11.5 125v891h106v-891q0 -77 -14 -151t-51.5 -151.5t-95 -134.5t-153.5 -94t-218 -37t-218 37t-154 94t-95.5 134.5t-51.5 151.5t-14 151z M625 1550l235 291h131l-246 -291h-120z" />
<glyph unicode="&#xdb;" horiz-adv-x="1441" d="M188 543v891h107v-891q0 -64 11.5 -125t41.5 -125t76.5 -111t123 -77.5t173.5 -30.5t173.5 30.5t123 77.5t76.5 111t41.5 125t11.5 125v891h106v-891q0 -77 -14 -151t-51.5 -151.5t-95 -134.5t-153.5 -94t-218 -37t-218 37t-154 94t-95.5 134.5t-51.5 151.5t-14 151z M430 1552l232 299h116l234 -299h-127l-162 209h-4l-162 -209h-127z" />
<glyph unicode="&#xdc;" horiz-adv-x="1441" d="M188 543v891h107v-891q0 -64 11.5 -125t41.5 -125t76.5 -111t123 -77.5t173.5 -30.5t173.5 30.5t123 77.5t76.5 111t41.5 125t11.5 125v891h106v-891q0 -77 -14 -151t-51.5 -151.5t-95 -134.5t-153.5 -94t-218 -37t-218 37t-154 94t-95.5 134.5t-51.5 151.5t-14 151z M473 1638v174h107v-174h-107zM862 1638v174h107v-174h-107z" />
<glyph unicode="&#xdd;" horiz-adv-x="1310" d="M57 1434h121l475 -725h4l473 725h123l-544 -828v-606h-107v606zM596 1550l235 291h132l-246 -291h-121z" />
<glyph unicode="&#xde;" horiz-adv-x="1134" d="M207 0v1434h106v-322h254q244 0 376 -93t132 -280q0 -185 -130 -281t-378 -96h-254v-362h-106zM313 457h254q194 0 297 72t103 210q0 137 -104 207t-296 70h-254v-559z" />
<glyph unicode="&#xdf;" horiz-adv-x="1177" d="M166 0v1151q0 179 105 270.5t282 91.5q101 0 179.5 -28.5t124 -77t68.5 -106t23 -121.5q0 -191 -223 -363q-31 -28 -31 -37q0 -18 64 -49q41 -21 64.5 -34t65.5 -39t68.5 -47.5t59 -54.5t51.5 -66t32 -75.5t13 -88.5q0 -113 -61.5 -189.5t-164 -110.5t-241.5 -34 q-131 0 -239 28l20 93q104 -27 219 -27q165 0 263 60t98 180q0 48 -20.5 92.5t-47 75t-71.5 62.5t-75.5 49t-76.5 40q-43 23 -58 32t-40.5 26.5t-34.5 33.5t-9 35q0 21 14.5 43t29 34.5t49.5 41.5q176 139 176 289q0 98 -73 168.5t-216 70.5q-129 0 -206 -68.5t-77 -199.5 v-1151h-104z" />
<glyph unicode="&#xe0;" d="M74 258q0 71 27.5 127t80.5 93.5t119 63t156 40t176.5 20.5t195.5 8v68q0 132 -82.5 204t-209.5 72q-105 0 -193 -32.5t-141 -85.5l-68 67q65 65 171 105.5t231 40.5q112 0 200 -40t142.5 -125.5t54.5 -205.5v-463q0 -62 26.5 -91.5t67.5 -29.5l21 2l16 -92q-4 -4 -37 -4 q-61 0 -106.5 32t-61.5 101h-4q-187 -158 -385 -158q-59 0 -113 8.5t-106.5 29.5t-91.5 52.5t-62.5 81t-23.5 111.5zM180 258q0 -51 26 -89t69.5 -59t92.5 -30.5t103 -9.5q184 0 358 159v289q-93 -2 -168 -7t-152.5 -15.5t-134 -30t-102 -47t-69 -68t-23.5 -92.5zM313 1524 h131l238 -291h-123z" />
<glyph unicode="&#xe1;" d="M74 258q0 71 27.5 127t80.5 93.5t119 63t156 40t176.5 20.5t195.5 8v68q0 132 -82.5 204t-209.5 72q-105 0 -193 -32.5t-141 -85.5l-68 67q65 65 171 105.5t231 40.5q112 0 200 -40t142.5 -125.5t54.5 -205.5v-463q0 -62 26.5 -91.5t67.5 -29.5l21 2l16 -92q-4 -4 -37 -4 q-61 0 -106.5 32t-61.5 101h-4q-187 -158 -385 -158q-59 0 -113 8.5t-106.5 29.5t-91.5 52.5t-62.5 81t-23.5 111.5zM180 258q0 -51 26 -89t69.5 -59t92.5 -30.5t103 -9.5q184 0 358 159v289q-93 -2 -168 -7t-152.5 -15.5t-134 -30t-102 -47t-69 -68t-23.5 -92.5zM426 1233 l238 291h131l-246 -291h-123z" />
<glyph unicode="&#xe2;" d="M74 258q0 71 27.5 127t80.5 93.5t119 63t156 40t176.5 20.5t195.5 8v68q0 132 -82.5 204t-209.5 72q-105 0 -193 -32.5t-141 -85.5l-68 67q65 65 171 105.5t231 40.5q112 0 200 -40t142.5 -125.5t54.5 -205.5v-463q0 -62 26.5 -91.5t67.5 -29.5l21 2l16 -92q-4 -4 -37 -4 q-61 0 -106.5 32t-61.5 101h-4q-187 -158 -385 -158q-59 0 -113 8.5t-106.5 29.5t-91.5 52.5t-62.5 81t-23.5 111.5zM180 258q0 -51 26 -89t69.5 -59t92.5 -30.5t103 -9.5q184 0 358 159v289q-93 -2 -168 -7t-152.5 -15.5t-134 -30t-102 -47t-69 -68t-23.5 -92.5zM252 1233 l231 299h117l231 -299h-124l-162 209h-4l-162 -209h-127z" />
<glyph unicode="&#xe3;" d="M74 258q0 71 27.5 127t80.5 93.5t119 63t156 40t176.5 20.5t195.5 8v68q0 132 -82.5 204t-209.5 72q-105 0 -193 -32.5t-141 -85.5l-68 67q65 65 171 105.5t231 40.5q112 0 200 -40t142.5 -125.5t54.5 -205.5v-463q0 -62 26.5 -91.5t67.5 -29.5l21 2l16 -92q-4 -4 -37 -4 q-61 0 -106.5 32t-61.5 101h-4q-187 -158 -385 -158q-59 0 -113 8.5t-106.5 29.5t-91.5 52.5t-62.5 81t-23.5 111.5zM180 258q0 -51 26 -89t69.5 -59t92.5 -30.5t103 -9.5q184 0 358 159v289q-93 -2 -168 -7t-152.5 -15.5t-134 -30t-102 -47t-69 -68t-23.5 -92.5zM203 1284 q20 93 68.5 144t113.5 51q75 0 186 -68q71 -41 103 -41q29 0 51.5 24.5t34.5 67.5h100q-44 -190 -184 -190q-66 0 -154 53q-89 55 -133 55q-29 0 -52 -26.5t-34 -69.5h-100z" />
<glyph unicode="&#xe4;" d="M74 258q0 71 27.5 127t80.5 93.5t119 63t156 40t176.5 20.5t195.5 8v68q0 132 -82.5 204t-209.5 72q-105 0 -193 -32.5t-141 -85.5l-68 67q65 65 171 105.5t231 40.5q112 0 200 -40t142.5 -125.5t54.5 -205.5v-463q0 -62 26.5 -91.5t67.5 -29.5l21 2l16 -92q-4 -4 -37 -4 q-61 0 -106.5 32t-61.5 101h-4q-187 -158 -385 -158q-59 0 -113 8.5t-106.5 29.5t-91.5 52.5t-62.5 81t-23.5 111.5zM180 258q0 -51 26 -89t69.5 -59t92.5 -30.5t103 -9.5q184 0 358 159v289q-93 -2 -168 -7t-152.5 -15.5t-134 -30t-102 -47t-69 -68t-23.5 -92.5zM287 1260 v174h106v-174h-106zM676 1260v174h106v-174h-106z" />
<glyph unicode="&#xe5;" d="M74 258q0 71 27.5 127t80.5 93.5t119 63t156 40t176.5 20.5t195.5 8v68q0 132 -82.5 204t-209.5 72q-105 0 -193 -32.5t-141 -85.5l-68 67q65 65 171 105.5t231 40.5q112 0 200 -40t142.5 -125.5t54.5 -205.5v-463q0 -62 26.5 -91.5t67.5 -29.5l21 2l16 -92q-4 -4 -37 -4 q-61 0 -106.5 32t-61.5 101h-4q-187 -158 -385 -158q-59 0 -113 8.5t-106.5 29.5t-91.5 52.5t-62.5 81t-23.5 111.5zM180 258q0 -51 26 -89t69.5 -59t92.5 -30.5t103 -9.5q184 0 358 159v289q-93 -2 -168 -7t-152.5 -15.5t-134 -30t-102 -47t-69 -68t-23.5 -92.5zM338 1401 q0 81 57 136.5t137 55.5q79 0 137 -55.5t58 -136.5q0 -82 -58 -137.5t-137 -55.5q-80 0 -137 55.5t-57 137.5zM432 1401q0 -42 29 -70t71 -28q41 0 71 28t30 70q0 41 -30.5 69.5t-70.5 28.5q-41 0 -70.5 -28.5t-29.5 -69.5z" />
<glyph unicode="&#xe7;" horiz-adv-x="1083" d="M90 512q0 163 74 287t196 187t273 63q131 0 228 -47t155 -130l-78 -53q-94 135 -305 135q-186 0 -311 -120.5t-125 -321.5q0 -196 124 -319t324 -123q56 0 108 14.5t86 35t60 40.5t37 34l12 15l76 -57q-8 -11 -22 -25.5t-49 -42.5t-74.5 -49.5t-100.5 -39t-125 -18.5 l-102 -131q1 0 2 -1t2 -1q38 17 76 17q41 0 78 -11.5t66.5 -44t29.5 -81.5q0 -55 -34 -92t-81.5 -51.5t-103.5 -14.5q-57 0 -111.5 12.5t-83.5 30.5l49 82q52 -31 146 -31q44 0 78 16.5t34 51.5q0 30 -30 45.5t-68 15.5q-55 0 -106 -31l-60 60l111 166q-208 29 -331.5 172 t-123.5 356z" />
<glyph unicode="&#xe8;" horiz-adv-x="1177" d="M88 512q0 163 74 287t196 187t273 63q111 0 200 -34.5t144.5 -94.5t85 -138t29.5 -168l-7 -108h-888q6 -196 138.5 -316t332.5 -120q59 0 115.5 12t95 29.5t69.5 35t46 29.5l14 12l63 -69q-6 -6 -18 -15.5t-52.5 -34.5t-84.5 -44t-111.5 -34.5t-136.5 -15.5 q-251 0 -414.5 150.5t-163.5 386.5zM203 596h778q6 151 -86 254.5t-264 103.5q-164 0 -283 -96.5t-145 -261.5zM338 1524h129l238 -291h-123z" />
<glyph unicode="&#xe9;" horiz-adv-x="1177" d="M88 512q0 163 74 287t196 187t273 63q111 0 200 -34.5t144.5 -94.5t85 -138t29.5 -168l-7 -108h-888q6 -196 138.5 -316t332.5 -120q59 0 115.5 12t95 29.5t69.5 35t46 29.5l14 12l63 -69q-6 -6 -18 -15.5t-52.5 -34.5t-84.5 -44t-111.5 -34.5t-136.5 -15.5 q-251 0 -414.5 150.5t-163.5 386.5zM203 596h778q6 151 -86 254.5t-264 103.5q-164 0 -283 -96.5t-145 -261.5zM518 1233l238 291h131l-246 -291h-123z" />
<glyph unicode="&#xea;" horiz-adv-x="1177" d="M88 512q0 163 74 287t196 187t273 63q111 0 200 -34.5t144.5 -94.5t85 -138t29.5 -168l-7 -108h-888q6 -196 138.5 -316t332.5 -120q59 0 115.5 12t95 29.5t69.5 35t46 29.5l14 12l63 -69q-6 -6 -18 -15.5t-52.5 -34.5t-84.5 -44t-111.5 -34.5t-136.5 -15.5 q-251 0 -414.5 150.5t-163.5 386.5zM203 596h778q6 151 -86 254.5t-264 103.5q-164 0 -283 -96.5t-145 -261.5zM326 1233l231 299h117l233 -299h-127l-162 209h-4l-161 -209h-127z" />
<glyph unicode="&#xeb;" horiz-adv-x="1177" d="M88 512q0 163 74 287t196 187t273 63q111 0 200 -34.5t144.5 -94.5t85 -138t29.5 -168l-7 -108h-888q6 -196 138.5 -316t332.5 -120q59 0 115.5 12t95 29.5t69.5 35t46 29.5l14 12l63 -69q-6 -6 -18 -15.5t-52.5 -34.5t-84.5 -44t-111.5 -34.5t-136.5 -15.5 q-251 0 -414.5 150.5t-163.5 386.5zM203 596h778q6 151 -86 254.5t-264 103.5q-164 0 -283 -96.5t-145 -261.5zM369 1260v174h106v-174h-106zM758 1260v174h106v-174h-106z" />
<glyph unicode="&#xec;" horiz-adv-x="446" d="M-84 1524h131l236 -291h-121zM172 0v1024h104v-1024h-104z" />
<glyph unicode="&#xed;" horiz-adv-x="446" d="M164 1233l237 291h129l-243 -291h-123zM172 0v1024h102v-1024h-102z" />
<glyph unicode="&#xee;" horiz-adv-x="446" d="M-63 1233l231 299h117l231 -299h-125l-162 209h-4l-162 -209h-126zM172 0v1024h104v-1024h-104z" />
<glyph unicode="&#xef;" horiz-adv-x="446" d="M-23 1260v174h107v-174h-107zM172 0v1024h102v-1024h-102zM367 1260v174h106v-174h-106z" />
<glyph unicode="&#xf0;" horiz-adv-x="1245" d="M90 500q0 226 150.5 375t380.5 149q85 0 172.5 -37t142.5 -92l2 2q-100 167 -373 367l-276 -150l-47 80l239 129q-2 1 -192 125l47 78q96 -58 231 -152l258 142l45 -80l-221 -121q111 -85 196.5 -171t157.5 -187.5t110.5 -217.5t39.5 -239q0 -227 -149.5 -376 t-382.5 -149q-230 0 -380.5 149.5t-150.5 375.5zM197 500q0 -185 120.5 -307.5t303.5 -122.5q186 0 306 122t120 308q0 188 -120 309t-306 121q-183 0 -303.5 -122.5t-120.5 -307.5z" />
<glyph unicode="&#xf1;" horiz-adv-x="1253" d="M166 0v1024h104v-139h4q61 71 159.5 117.5t201.5 46.5q229 0 348 -113t119 -309v-627h-103v627q0 152 -93.5 239.5t-270.5 87.5q-123 0 -217 -53.5t-148 -146.5v-754h-104zM309 1284q20 93 68.5 144t114.5 51q71 0 184 -68q75 -41 102 -41q30 0 52.5 24.5t33.5 67.5h101 q-20 -93 -67 -141.5t-116 -48.5q-73 0 -155 53q-32 20 -47 28.5t-39.5 17.5t-44.5 9q-29 0 -52.5 -26t-35.5 -70h-99z" />
<glyph unicode="&#xf2;" horiz-adv-x="1265" d="M88 512q0 231 154 384t389 153q157 0 282 -70t194 -192.5t69 -274.5t-69 -274.5t-194 -192.5t-282 -70q-235 0 -389 153t-154 384zM195 512q0 -191 123.5 -316.5t312.5 -125.5q191 0 314.5 125.5t123.5 316.5t-123.5 316.5t-314.5 125.5q-189 0 -312.5 -125.5 t-123.5 -316.5zM344 1524h131l238 -291h-123z" />
<glyph unicode="&#xf3;" horiz-adv-x="1265" d="M88 512q0 231 154 384t389 153q157 0 282 -70t194 -192.5t69 -274.5t-69 -274.5t-194 -192.5t-282 -70q-235 0 -389 153t-154 384zM195 512q0 -191 123.5 -316.5t312.5 -125.5q191 0 314.5 125.5t123.5 316.5t-123.5 316.5t-314.5 125.5q-189 0 -312.5 -125.5 t-123.5 -316.5zM549 1233l237 291h132l-246 -291h-123z" />
<glyph unicode="&#xf4;" horiz-adv-x="1265" d="M88 512q0 231 154 384t389 153q157 0 282 -70t194 -192.5t69 -274.5t-69 -274.5t-194 -192.5t-282 -70q-235 0 -389 153t-154 384zM195 512q0 -191 123.5 -316.5t312.5 -125.5q191 0 314.5 125.5t123.5 316.5t-123.5 316.5t-314.5 125.5q-189 0 -312.5 -125.5 t-123.5 -316.5zM340 1233l231 299h117l234 -299h-127l-162 209h-4l-162 -209h-127z" />
<glyph unicode="&#xf5;" horiz-adv-x="1265" d="M88 512q0 231 154 384t389 153q157 0 282 -70t194 -192.5t69 -274.5t-69 -274.5t-194 -192.5t-282 -70q-235 0 -389 153t-154 384zM195 512q0 -191 123.5 -316.5t312.5 -125.5q191 0 314.5 125.5t123.5 316.5t-123.5 316.5t-314.5 125.5q-189 0 -312.5 -125.5 t-123.5 -316.5zM303 1284q20 93 68.5 144t113.5 51q76 0 187 -68q71 -41 102 -41q29 0 51.5 24.5t34.5 67.5h101q-44 -190 -185 -190q-65 0 -153 53q-89 55 -134 55q-29 0 -52 -26.5t-34 -69.5h-100z" />
<glyph unicode="&#xf6;" horiz-adv-x="1265" d="M88 512q0 231 154 384t389 153q157 0 282 -70t194 -192.5t69 -274.5t-69 -274.5t-194 -192.5t-282 -70q-235 0 -389 153t-154 384zM195 512q0 -191 123.5 -316.5t312.5 -125.5q191 0 314.5 125.5t123.5 316.5t-123.5 316.5t-314.5 125.5q-189 0 -312.5 -125.5 t-123.5 -316.5zM383 1260v174h106v-174h-106zM772 1260v174h107v-174h-107z" />
<glyph unicode="&#xf7;" horiz-adv-x="1423" d="M154 616v95h1116v-95h-1116zM659 190v175h107v-175h-107zM659 961v174h107v-174h-107z" />
<glyph unicode="&#xf8;" horiz-adv-x="1261" d="M68 4l149 152q-129 148 -129 356q0 231 154 384t389 153q202 0 346 -115l141 147l74 -65l-143 -148q127 -149 127 -356q0 -152 -69 -274.5t-194 -192.5t-282 -70q-200 0 -344 113l-146 -149zM195 512q0 -165 94 -283l616 633q-116 92 -274 92q-189 0 -312.5 -125.5 t-123.5 -316.5zM358 160q118 -90 273 -90q192 0 315 125t123 317q0 163 -94 281z" />
<glyph unicode="&#xf9;" horiz-adv-x="1253" d="M152 397v627h104v-627q0 -152 92.5 -239.5t269.5 -87.5q123 0 217 53.5t150 146.5v754h102v-1024h-102v139h-4q-61 -70 -160.5 -117t-202.5 -47q-229 0 -347.5 113t-118.5 309zM354 1524h131l236 -291h-121z" />
<glyph unicode="&#xfa;" horiz-adv-x="1253" d="M152 397v627h104v-627q0 -152 92.5 -239.5t269.5 -87.5q123 0 217 53.5t150 146.5v754h102v-1024h-102v139h-4q-61 -70 -160.5 -117t-202.5 -47q-229 0 -347.5 113t-118.5 309zM516 1233l238 291h131l-246 -291h-123z" />
<glyph unicode="&#xfb;" horiz-adv-x="1253" d="M152 397v627h104v-627q0 -152 92.5 -239.5t269.5 -87.5q123 0 217 53.5t150 146.5v754h102v-1024h-102v139h-4q-61 -70 -160.5 -117t-202.5 -47q-229 0 -347.5 113t-118.5 309zM330 1233l231 299h117l231 -299h-125l-161 209h-5l-163 -209h-125z" />
<glyph unicode="&#xfc;" horiz-adv-x="1253" d="M152 397v627h104v-627q0 -152 92.5 -239.5t269.5 -87.5q123 0 217 53.5t150 146.5v754h102v-1024h-102v139h-4q-61 -70 -160.5 -117t-202.5 -47q-229 0 -347.5 113t-118.5 309zM373 1260v174h106v-174h-106zM762 1260v174h106v-174h-106z" />
<glyph unicode="&#xfd;" horiz-adv-x="1128" d="M47 1024h111l403 -899h4l408 899h110l-553 -1214q-58 -128 -126 -178t-205 -50q-67 0 -131 15l20 88q64 -11 111 -11q91 0 141.5 37.5t95.5 134.5l72 158zM489 1233l238 291h131l-246 -291h-123z" />
<glyph unicode="&#xfe;" horiz-adv-x="1222" d="M164 -410v1905h104v-592h4q136 146 338 146q107 0 203.5 -41t167.5 -112t112.5 -171t41.5 -213t-41.5 -213t-112.5 -171t-167.5 -112t-203.5 -41q-203 0 -338 148h-4v-533h-104zM268 256q57 -88 147 -137t195 -49q174 0 296 127t122 315t-122 315t-296 127 q-105 0 -195 -50t-147 -140v-508z" />
<glyph unicode="&#xff;" horiz-adv-x="1128" d="M47 1024h111l403 -899h4l408 899h110l-553 -1214q-58 -128 -126 -178t-205 -50q-67 0 -131 15l20 88q64 -11 111 -11q91 0 141.5 37.5t95.5 134.5l72 158zM332 1260v174h106v-174h-106zM721 1260v174h106v-174h-106z" />
<glyph unicode="&#x178;" horiz-adv-x="1310" d="M57 1434h121l475 -725h4l473 725h123l-544 -828v-606h-107v606zM410 1638v174h106v-174h-106zM799 1638v174h106v-174h-106z" />
<glyph unicode="&#x2c6;" horiz-adv-x="784" d="M102 1233l232 299h117l231 -299h-125l-162 209h-4l-162 -209h-127z" />
<glyph unicode="&#x2dc;" horiz-adv-x="862" d="M102 1284q20 93 68.5 144t114.5 51q77 0 184 -68q75 -41 104 -41t51 24.5t33 67.5h103q-44 -190 -185 -190q-63 0 -155 53q-80 55 -131 55q-29 0 -52.5 -26t-35.5 -70h-99z" />
<glyph unicode="&#x2000;" horiz-adv-x="958" />
<glyph unicode="&#x2001;" horiz-adv-x="1917" />
<glyph unicode="&#x2002;" horiz-adv-x="958" />
<glyph unicode="&#x2003;" horiz-adv-x="1917" />
<glyph unicode="&#x2004;" horiz-adv-x="639" />
<glyph unicode="&#x2005;" horiz-adv-x="479" />
<glyph unicode="&#x2006;" horiz-adv-x="319" />
<glyph unicode="&#x2007;" horiz-adv-x="319" />
<glyph unicode="&#x2008;" horiz-adv-x="239" />
<glyph unicode="&#x2009;" horiz-adv-x="383" />
<glyph unicode="&#x200a;" horiz-adv-x="106" />
<glyph unicode="&#x2010;" horiz-adv-x="716" d="M113 485v95h491v-95h-491z" />
<glyph unicode="&#x2011;" horiz-adv-x="716" d="M113 485v95h491v-95h-491z" />
<glyph unicode="&#x2012;" horiz-adv-x="716" d="M113 485v95h491v-95h-491z" />
<glyph unicode="&#x2013;" horiz-adv-x="968" d="M113 485v95h743v-95h-743z" />
<glyph unicode="&#x2014;" horiz-adv-x="1406" d="M113 485v95h1181v-95h-1181z" />
<glyph unicode="&#x2018;" horiz-adv-x="475" d="M94 1436h109l145 -480h-102z" />
<glyph unicode="&#x2019;" horiz-adv-x="475" d="M127 956l145 480h109l-150 -480h-104z" />
<glyph unicode="&#x201a;" horiz-adv-x="428" d="M39 -285l145 480h109l-150 -480h-104z" />
<glyph unicode="&#x201c;" horiz-adv-x="808" d="M94 1436h109l145 -480h-102zM428 1436h109l145 -480h-102z" />
<glyph unicode="&#x201d;" horiz-adv-x="808" d="M127 956l145 480h109l-150 -480h-104zM461 956l145 480h109l-150 -480h-104z" />
<glyph unicode="&#x201e;" horiz-adv-x="761" d="M39 -285l145 480h109l-150 -480h-104zM373 -285l145 480h109l-150 -480h-104z" />
<glyph unicode="&#x2022;" horiz-adv-x="1003" d="M158 727q0 145 95 243.5t249 98.5t249 -98.5t95 -243.5q0 -147 -95 -246.5t-249 -99.5t-249 99.5t-95 246.5z" />
<glyph unicode="&#x202f;" horiz-adv-x="383" />
<glyph unicode="&#x2039;" horiz-adv-x="632" d="M113 524l276 422h121l-277 -424l275 -418h-121z" />
<glyph unicode="&#x203a;" horiz-adv-x="632" d="M123 946h121l276 -422l-274 -420h-121l274 418z" />
<glyph unicode="&#x205f;" horiz-adv-x="479" />
<glyph unicode="&#x20ac;" horiz-adv-x="1560" d="M90 496v94h123q-8 55 -8 127q0 59 10 131h-121v94h142q66 233 257.5 374.5t446.5 141.5q283 0 483 -172l-39 -100q-177 174 -444 174q-209 0 -367.5 -114.5t-220.5 -303.5h944l-34 -94h-936q-13 -70 -13 -131q0 -60 13 -127h839l-35 -94h-780q62 -192 221.5 -307 t368.5 -115q138 0 258 50t207 140l70 -67q-100 -105 -238.5 -163.5t-296.5 -58.5q-256 0 -446.5 143t-257.5 378h-146z" />
<glyph unicode="&#x2122;" horiz-adv-x="1832" d="M78 1339v95h643v-95h-268v-739h-107v739h-268zM852 600v834h109l290 -695h4l289 695h109v-834h-107v565h-4l-231 -565h-113l-235 565h-5v-565h-106z" />
<glyph unicode="&#x25fc;" horiz-adv-x="1024" d="M0 0v1024h1024v-1024h-1024z" />
</font>
</defs>
</svg>
